<?xml version="1.0" encoding="UTF-8" standalone="no"?>
<!DOCTYPE svg PUBLIC "-//W3C//DTD SVG 1.1//EN" "http://www.w3.org/Graphics/SVG/1.1/DTD/svg11.dtd">
<svg version="1.1" xmlns="http://www.w3.org/2000/svg" xmlns:xlink="http://www.w3.org/1999/xlink" preserveAspectRatio="xMidYMid meet" viewBox="0 0 640 640" width="640" height="640"><defs><path d="M626.52 314.76C626.52 483.93 489.17 621.27 320 621.27C150.83 621.27 13.48 483.93 13.48 314.76C13.48 145.58 150.83 8.24 320 8.24C489.17 8.24 626.52 145.58 626.52 314.76Z" id="c5w2Qhz9NM"></path><path d="M310.99 560.87C184.63 526.99 74.11 512.64 74.11 494.57C74.11 476.51 180.17 495.46 310.99 495.46C441.82 495.46 542.99 477.19 547.88 494.57C557.15 527.57 467.94 602.95 310.99 560.87Z" id="bbc5DXBQQ"></path><path d="M310.99 560.87C184.63 526.99 74.11 512.64 74.11 494.57C74.11 476.51 180.17 495.46 310.99 495.46C441.82 495.46 542.99 477.19 547.88 494.57C557.15 527.57 467.94 602.95 310.99 560.87Z" id="dlvxAsFjk"></path><path d="M310.99 527.28C184.63 493.4 74.11 512.64 74.11 494.57C74.11 476.51 180.17 461.87 310.99 461.87C441.82 461.87 542.99 477.19 547.88 494.57C557.15 527.57 467.94 569.36 310.99 527.28Z" id="h5emlAZ2R"></path><path d="M405.49 511.93C405.49 515.43 397.28 518.27 387.17 518.27C377.05 518.27 368.84 515.43 368.84 511.93C368.84 508.42 377.05 505.58 387.17 505.58C397.28 505.58 405.49 508.42 405.49 511.93Z" id="a6HoWElwVq"></path><path d="M480.18 511.93C480.18 515.43 471.98 518.27 461.86 518.27C451.74 518.27 443.54 515.43 443.54 511.93C443.54 508.42 451.74 505.58 461.86 505.58C471.98 505.58 480.18 508.42 480.18 511.93Z" id="a2SsB822SG"></path><path d="M370.96 483.74C370.96 492.69 344.14 499.95 311.06 499.95C277.98 499.95 251.16 492.69 251.16 483.74C251.16 474.79 277.98 467.53 311.06 467.53C344.14 467.53 370.96 474.79 370.96 483.74Z" id="d1gzCrI1cy"></path><path d="M576.02 434.41L576.02 141.27L46.11 141.27L46.11 434.41L290.63 434.41C290.63 457.92 290.63 470.99 290.63 473.6C278.41 475.06 270.19 477.79 270.19 480.92C270.19 485.59 288.49 489.38 311.06 489.38C333.63 489.38 351.93 485.59 351.93 480.92C351.93 477.79 343.71 475.06 331.5 473.6C331.5 470.99 331.5 457.92 331.5 434.41L576.02 434.41Z" id="d1RK1zYSQJ"></path><path d="M548.54 151.54C548.54 151.54 548.54 151.54 548.54 151.54C548.54 309.18 548.54 396.76 548.54 414.28C548.54 414.28 548.54 414.28 548.54 414.28C263.57 414.28 105.25 414.28 73.59 414.28C73.59 414.28 73.59 414.28 73.59 414.28C73.59 256.63 73.59 169.06 73.59 151.54C73.59 151.54 73.59 151.54 73.59 151.54C358.56 151.54 516.87 151.54 548.54 151.54Z" id="b4u7XgYWW"></path><path d="M548.54 151.84C548.54 151.84 351.23 172.28 315.29 251.2C315.29 251.2 73.59 413.98 73.59 413.98C105.25 413.98 263.57 413.98 548.54 413.98C548.54 274.17 548.54 186.79 548.54 151.84Z" id="b1UlfvF9In"></path><path d="M459.92 277.27L459.92 296.75L386.99 296.75L386.99 278.46L384.88 278.46L384.88 511.93L386.99 511.93L386.99 470.13L459.92 470.13L459.92 511.93L462.03 511.93L462.03 277.27L459.92 277.27ZM459.92 298.87L459.92 331.01L386.99 331.01L386.99 298.87L459.92 298.87ZM386.99 399.51L386.99 367.37L459.92 367.37L459.92 399.51L386.99 399.51ZM459.92 401.63L459.92 433.76L386.99 433.76L386.99 401.63L459.92 401.63ZM386.99 365.26L386.99 333.12L459.92 333.12L459.92 365.26L386.99 365.26ZM386.99 468.02L386.99 435.88L459.92 435.88L459.92 468.02L386.99 468.02Z" id="f270AL4m5t"></path><path d="M364 281.91C364 283.66 364 284.64 364 284.83C364 284.83 361.91 285.66 361.91 289C361.91 289 360.24 304.86 360.24 304.86C360.24 304.86 363.16 307.36 365.67 306.52C367.05 306.1 368.33 305.39 369.42 304.44C369.45 303.58 369.59 299.26 369.84 291.51L368.17 288.17L368.17 282.33L364 281.91Z" id="b1aZtZUA8B"></path><path d="M443.81 165.93C443.81 165.93 436.55 166.77 436.55 170.11C436.55 170.11 430.75 185.96 430.75 185.96C430.75 185.96 440.9 188.46 449.61 187.63C449.61 187.63 462.67 185.54 462.67 185.54C462.77 184.68 463.25 180.37 464.12 172.61L458.32 169.27C450.58 167.49 445.74 166.38 443.81 165.93Z" id="cfD8obayF"></path><path d="M444.51 195.14C444.51 190.38 444.51 187.74 444.51 187.21C444.51 187.21 435.75 169.69 442.84 169.69C442.84 169.69 450.77 185.54 450.77 185.54C450.77 186.29 450.77 190.05 450.77 196.8L444.51 195.14Z" id="b2XyGHOOua"></path><path d="M369.42 278.16C369.42 278.16 364.83 275.65 364 278.16C364 278.16 360.66 286.08 364 286.5C364 286.5 370.67 284 370.67 284C370.42 282.83 369.67 279.32 369.42 278.16Z" id="a1jACx1DAy"></path><path d="M393.14 330.74C393.14 330.74 394.68 386.67 401.6 386.35C401.6 386.35 399.8 393.37 405.68 393.63C411.56 393.89 414.24 394.29 414.7 392.67C415.16 391.05 415.87 383.55 414.28 383.62C414.28 383.62 414.38 385.75 415.04 377.19C415.71 368.62 413.82 328.17 416.23 322.73C417.18 324.66 424.73 340.09 425.67 342.02C425.67 342.02 426.09 351.07 427.89 355.25C427.89 355.25 433.49 383.79 433.49 383.79C433.45 384.17 433.16 387.17 433.13 387.54C433.13 387.54 446 389.08 446.43 386.92C446.43 386.92 446.72 381.58 446.14 380.54C446.14 380.54 445.55 379.5 446.52 377.32C447.38 375.66 447.49 373.71 446.8 371.97C446.2 370.4 444.58 335.8 444.58 335.8C444.58 335.8 441.55 293.81 435.07 291.98C428.58 290.15 392.01 295.05 392.01 295.05C392.23 302.19 389.49 298.37 393.14 330.74Z" id="hvLE6f5CB"></path><path d="M399.44 397.12C399.44 397.12 392.67 395.03 394.29 401.09C400.78 401.29 407.28 400.9 413.7 399.92C413.7 399.92 416.41 400.86 416.87 399.24C416.87 399.24 415.21 392.12 413.61 392.19C412.01 392.26 403.35 389.47 403.35 389.47C402.57 391 399.83 396.35 399.44 397.12Z" id="a4vntPne1O"></path><path d="M431.93 396.13C431.93 396.13 448.02 398.05 449.11 398.53C449.11 398.53 455.55 399.3 455.93 396.08C455.93 396.08 453.07 391.95 453.07 391.95C453.07 391.95 447.17 391.16 445.32 385.91C443.47 380.66 434.12 385.9 434.12 385.9C433.68 387.95 430.31 395.68 431.93 396.13Z" id="f7sghXQYf"></path><path d="M397.99 193.42C391.83 193.42 386.84 198.41 386.84 204.57C386.84 210.72 391.83 215.71 397.99 215.71C404.14 215.71 409.13 210.72 409.13 204.57C409.13 198.41 404.14 193.42 397.99 193.42Z" id="d1EUHkJvuK"></path><path d="M393.88 228.03C393.88 228.03 410.3 226.85 410.3 226.85C410.3 226.85 406.79 211.61 407.37 208.09C407.96 204.57 392.12 209.85 392.12 209.85C392.47 213.48 395.05 225.1 393.88 228.03Z" id="bvwS7Ng4c"></path><path d="M394.86 190.93C394.13 191.25 393.46 191.69 392.88 192.22C391.82 193.07 390.69 193.82 389.49 194.47C388.5 194.9 387.6 195.53 386.86 196.32C386.54 196.75 386.29 197.22 386.11 197.72C384.97 200.64 384.66 203.82 385.23 206.91C385.29 207.35 385.42 207.77 385.62 208.17C386.23 209.29 387.57 209.73 388.71 210.32C390.86 211.44 392.49 213.32 394.26 214.99C394.92 215.64 395.65 216.21 396.45 216.68C398.97 218.05 402.05 217.6 404.88 217.12C405.72 217.12 406.4 216.43 406.4 215.6C406.4 215.59 406.4 215.59 406.4 215.58C406.62 214.58 408.41 206.55 408.63 205.54C409.03 204.05 409.23 202.52 409.2 200.98C409.05 198.54 407.73 195.16 405.94 193.43C403.85 191.41 400.37 191.09 397.65 190.8C396.72 190.63 395.77 190.68 394.86 190.93Z" id="a3t3hcj4zg"></path><path d="M395.29 222.67C398.12 222.4 400.91 221.84 403.63 221C404.05 221 409.47 221.42 411.97 223.92C411.97 223.92 413.64 226.42 414.48 224.76C415.31 223.09 415.31 222.25 416.98 223.09C418.65 223.92 418.65 220.58 421.57 221C424.49 221.42 432 240.19 432 240.19C431.75 240.48 429.75 242.82 429.49 243.11C429.49 243.11 426.16 265.64 432 275.24C432 275.24 440.34 295.26 434.5 297.35C434.5 297.35 387.78 318.21 389.45 306.52C389.45 306.52 389.86 276.49 388.19 276.07C388.19 276.07 377.35 242.69 377.35 242.69C378.1 238.45 380.91 234.85 384.86 233.1C391.53 230.18 389.45 228.93 389.45 228.93C390.61 227.68 390.28 223.09 395.29 222.67Z" id="b2d3P33Zye"></path><path d="M421.57 221C421.57 221 425.32 221 425.74 220.17C425.74 220.17 428.24 219.33 429.91 218.5C429.91 218.5 429.49 216.41 431.58 215.58C431.58 215.58 433.67 215.58 433.67 213.49C433.67 213.49 439.09 209.32 439.51 206.82C439.92 204.31 444.1 192.63 444.1 192.63C444.62 192.8 447.27 193.63 452.02 195.14C450.77 204.15 450.08 209.15 449.94 210.15C449.94 210.15 449.94 217.66 446.18 222.67C446.18 222.67 434.08 240.19 429.91 240.61C425.74 241.03 419.48 222.67 419.48 222.67C419.9 222.34 421.36 221.17 421.57 221Z" id="c2qQ8CIvFG"></path><path d="M377.35 242.69C377.35 242.69 376.51 251.87 376.51 252.29C376.51 252.29 377.35 257.71 376.51 258.13C376.51 258.13 374.01 266.89 374.43 267.31C374.43 267.31 374.43 267.31 374.43 267.31L374.43 268.56L368.59 277.74L368.59 286.5C376.85 281.24 381.44 278.32 382.35 277.74C382.35 277.74 390.28 276.9 389.03 269.81C387.78 262.72 379.85 240.61 379.85 240.61C379.35 241.03 377.6 242.49 377.35 242.69Z" id="akyg48ktr"></path><path d="M311.06 418.91C306.78 418.91 303.31 422.38 303.31 426.66C303.31 430.94 306.78 434.41 311.06 434.41C315.34 434.41 318.81 430.94 318.81 426.66C318.81 422.38 315.34 418.91 311.06 418.91Z" id="b1f05i6JpY"></path></defs><g><g><g><use xlink:href="#c5w2Qhz9NM" opacity="1" fill="#6c63ff" fill-opacity="1"></use></g><g><use xlink:href="#bbc5DXBQQ" opacity="1" fill="#3f3d56" fill-opacity="1"></use><g><use xlink:href="#bbc5DXBQQ" opacity="1" fill-opacity="0" stroke="#000000" stroke-width="1" stroke-opacity="0"></use></g></g><g><use xlink:href="#dlvxAsFjk" opacity="1" fill="#000000" fill-opacity="1"></use><g><use xlink:href="#dlvxAsFjk" opacity="1" fill-opacity="0" stroke="#000000" stroke-width="1" stroke-opacity="0"></use></g></g><g><use xlink:href="#h5emlAZ2R" opacity="1" fill="#3f3d56" fill-opacity="1"></use><g><use xlink:href="#h5emlAZ2R" opacity="1" fill-opacity="0" stroke="#000000" stroke-width="1" stroke-opacity="0"></use></g></g><g><use xlink:href="#a6HoWElwVq" opacity="1" fill="#000000" fill-opacity="1"></use><g><use xlink:href="#a6HoWElwVq" opacity="1" fill-opacity="0" stroke="#000000" stroke-width="1" stroke-opacity="0"></use></g></g><g><use xlink:href="#a2SsB822SG" opacity="1" fill="#000000" fill-opacity="1"></use><g><use xlink:href="#a2SsB822SG" opacity="1" fill-opacity="0" stroke="#000000" stroke-width="1" stroke-opacity="0"></use></g></g><g><use xlink:href="#d1gzCrI1cy" opacity="1" fill="#000000" fill-opacity="1"></use><g><use xlink:href="#d1gzCrI1cy" opacity="1" fill-opacity="0" stroke="#000000" stroke-width="1" stroke-opacity="0"></use></g></g><g><use xlink:href="#d1RK1zYSQJ" opacity="1" fill="#3f3d56" fill-opacity="1"></use><g><use xlink:href="#d1RK1zYSQJ" opacity="1" fill-opacity="0" stroke="#000000" stroke-width="1" stroke-opacity="0"></use></g></g><g><use xlink:href="#b4u7XgYWW" opacity="1" fill="#f2f2f2" fill-opacity="1"></use><g><use xlink:href="#b4u7XgYWW" opacity="1" fill-opacity="0" stroke="#000000" stroke-width="1" stroke-opacity="0"></use></g></g><g><use xlink:href="#b1UlfvF9In" opacity="1" fill="#000000" fill-opacity="1"></use><g><use xlink:href="#b1UlfvF9In" opacity="1" fill-opacity="0" stroke="#000000" stroke-width="1" stroke-opacity="0"></use></g></g><g><use xlink:href="#f270AL4m5t" opacity="1" fill="#2f2e41" fill-opacity="1"></use><g><use xlink:href="#f270AL4m5t" opacity="1" fill-opacity="0" stroke="#000000" stroke-width="1" stroke-opacity="0"></use></g></g><g><use xlink:href="#b1aZtZUA8B" opacity="1" fill="#6c63ff" fill-opacity="1"></use><g><use xlink:href="#b1aZtZUA8B" opacity="1" fill-opacity="0" stroke="#000000" stroke-width="1" stroke-opacity="0"></use></g></g><g><use xlink:href="#cfD8obayF" opacity="1" fill="#6c63ff" fill-opacity="1"></use><g><use xlink:href="#cfD8obayF" opacity="1" fill-opacity="0" stroke="#000000" stroke-width="1" stroke-opacity="0"></use></g></g><g><use xlink:href="#b2XyGHOOua" opacity="1" fill="#ffb8b8" fill-opacity="1"></use><g><use xlink:href="#b2XyGHOOua" opacity="1" fill-opacity="0" stroke="#000000" stroke-width="1" stroke-opacity="0"></use></g></g><g><use xlink:href="#a1jACx1DAy" opacity="1" fill="#ffb8b8" fill-opacity="1"></use><g><use xlink:href="#a1jACx1DAy" opacity="1" fill-opacity="0" stroke="#000000" stroke-width="1" stroke-opacity="0"></use></g></g><g><use xlink:href="#hvLE6f5CB" opacity="1" fill="#2f2e41" fill-opacity="1"></use><g><use xlink:href="#hvLE6f5CB" opacity="1" fill-opacity="0" stroke="#000000" stroke-width="1" stroke-opacity="0"></use></g></g><g><use xlink:href="#a4vntPne1O" opacity="1" fill="#2f2e41" fill-opacity="1"></use><g><use xlink:href="#a4vntPne1O" opacity="1" fill-opacity="0" stroke="#000000" stroke-width="1" stroke-opacity="0"></use></g></g><g><use xlink:href="#f7sghXQYf" opacity="1" fill="#2f2e41" fill-opacity="1"></use><g><use xlink:href="#f7sghXQYf" opacity="1" fill-opacity="0" stroke="#000000" stroke-width="1" stroke-opacity="0"></use></g></g><g><use xlink:href="#d1EUHkJvuK" opacity="1" fill="#ffb8b8" fill-opacity="1"></use><g><use xlink:href="#d1EUHkJvuK" opacity="1" fill-opacity="0" stroke="#000000" stroke-width="1" stroke-opacity="0"></use></g></g><g><use xlink:href="#bvwS7Ng4c" opacity="1" fill="#ffb8b8" fill-opacity="1"></use><g><use xlink:href="#bvwS7Ng4c" opacity="1" fill-opacity="0" stroke="#000000" stroke-width="1" stroke-opacity="0"></use></g></g><g><use xlink:href="#a3t3hcj4zg" opacity="1" fill="#2f2e41" fill-opacity="1"></use><g><use xlink:href="#a3t3hcj4zg" opacity="1" fill-opacity="0" stroke="#000000" stroke-width="1" stroke-opacity="0"></use></g></g><g><use xlink:href="#b2d3P33Zye" opacity="1" fill="#575a88" fill-opacity="1"></use><g><use xlink:href="#b2d3P33Zye" opacity="1" fill-opacity="0" stroke="#000000" stroke-width="1" stroke-opacity="0"></use></g></g><g><use xlink:href="#c2qQ8CIvFG" opacity="1" fill="#575a88" fill-opacity="1"></use><g><use xlink:href="#c2qQ8CIvFG" opacity="1" fill-opacity="0" stroke="#000000" stroke-width="1" stroke-opacity="0"></use></g></g><g><use xlink:href="#akyg48ktr" opacity="1" fill="#575a88" fill-opacity="1"></use><g><use xlink:href="#akyg48ktr" opacity="1" fill-opacity="0" stroke="#000000" stroke-width="1" stroke-opacity="0"></use></g></g><g><use xlink:href="#b1f05i6JpY" opacity="1" fill="#6c63ff" fill-opacity="1"></use><g><use xlink:href="#b1f05i6JpY" opacity="1" fill-opacity="0" stroke="#000000" stroke-width="1" stroke-opacity="0"></use></g></g></g></g></svg>