<?xml version="1.0" encoding="UTF-8" standalone="no"?>
<!DOCTYPE svg PUBLIC "-//W3C//DTD SVG 1.1//EN" "http://www.w3.org/Graphics/SVG/1.1/DTD/svg11.dtd">
<svg version="1.1" xmlns="http://www.w3.org/2000/svg" xmlns:xlink="http://www.w3.org/1999/xlink" preserveAspectRatio="xMidYMid meet" viewBox="0 0 640 640" width="640" height="640"><defs><path d="M626.52 313.43C626.52 482.6 489.17 619.94 320 619.94C150.83 619.94 13.48 482.6 13.48 313.43C13.48 144.26 150.83 6.91 320 6.91C489.17 6.91 626.52 144.26 626.52 313.43Z" id="bm71wc9vL"></path><path d="M301.21 575.04C260 575.04 218.74 564.98 184.5 541.09C162.34 525.61 142.15 505.39 130.44 480.7C117.49 453.39 114.21 424.13 123.18 395.02C127.03 382.52 132.53 370.51 138 358.65C140.54 353.15 143.07 347.64 145.57 342.12C145.69 341.86 145.85 341.53 146.01 341.19C146.24 340.61 146.46 340.03 146.68 339.46C147.65 337.01 148.58 334.54 149.43 332.05C151.32 326.53 152.76 320.93 153.87 315.2C153.88 315.17 153.91 315 153.92 314.97C153.97 313.97 153.97 312.92 153.97 312.92C153.97 312.92 153.97 312.92 153.97 312.92C154.1 310.33 153.95 307.76 153.93 305.17C153.93 304.88 153.93 304.63 153.94 304.41C153.93 304.39 153.88 304.17 153.88 304.14C153.56 302.7 153.29 301.27 152.94 299.84C152.25 296.99 151.38 294.18 150.43 291.41C149.48 288.61 148.39 285.87 147.31 283.12C147.18 282.79 146.95 282.22 146.75 281.72C146.41 280.92 146.07 280.12 145.73 279.32C139.4 264.46 133.71 250.43 131.89 234.27C130.37 220.73 132.38 206.43 137.23 193.71C147.81 165.97 168.36 144.12 194.44 130.1C222.35 115.1 253.99 108.1 285.73 108.1C293.33 108.1 300.93 108.5 308.49 109.29C325.54 110.17 342.67 112.87 358.88 117.06C350.18 119.37 342 122.46 335.27 125.78C309.82 138.33 310.86 155.89 322.34 173.45C322.34 173.45 322.12 173.44 321.71 173.44C317.67 173.44 295.58 174.3 299.38 193.08C302.1 206.56 311.49 208.91 317.68 208.91C320.97 208.91 323.36 208.24 323.36 208.24C323.36 208.24 345.13 278.87 398.09 278.87C398.93 278.87 399.78 278.85 400.63 278.82C449.69 276.75 429.69 205.6 430.3 193.66C430.7 185.71 435.93 172.96 433.6 156.32C434.82 157.47 436.01 158.64 437.18 159.84C446.39 169.23 454.78 180.25 460.45 192.16C467.47 206.91 470.88 221.2 472.8 237.34C474.27 249.58 474.42 261.91 475.5 274.17C475.57 274.88 475.53 275.85 475.56 276.82C475.66 277.1 475.76 277.46 475.85 277.92C476.44 281.03 476.98 284.12 477.78 287.18C478.39 289.53 479.18 291.79 479.94 294.08C480.6 295.21 481.14 296.42 481.8 297.55C482.62 298.96 483.55 300.29 484.41 301.67C484.41 301.67 484.44 301.71 484.44 301.72C486.03 303.5 488.64 306.25 488.97 306.58C492.57 310.26 496.4 313.69 500.24 317.11C509.88 325.7 518.75 334.34 526.37 344.84C544.43 369.76 544.5 403.01 535.94 431.46C527.71 458.87 513.33 486.25 491.15 504.88C469.58 523 444.21 536.59 418.48 547.82C392.6 559.11 365.98 568.53 337.91 572.45C325.8 574.15 313.51 575.04 301.21 575.04M96.99 329.79C90.88 329.79 84.8 328.13 79.76 324.77C73.03 321.66 67.62 315.4 65.63 308.44C62.77 298.48 64.62 287.06 70.01 278.2C75.96 268.42 86.35 262.93 97.32 262.93C100.07 262.93 102.85 263.27 105.61 263.98C130.1 270.26 136.1 302.3 120.43 319.81C114.52 326.41 105.73 329.79 96.99 329.79M153.97 312.92L153.97 312.92L153.97 312.92M569.69 200.44C567.7 200.44 565.71 200.17 563.71 199.64C559.9 198.57 556.6 196.64 553.79 193.85C551 191.05 549.07 187.74 548 183.93C547.99 183.9 547.91 183.7 547.9 183.68C546.82 179.66 546.82 175.64 547.9 171.62C548.98 167.78 550.92 164.44 553.73 161.61C556.45 158.15 560.96 156.23 564.93 154.78C567.31 153.9 569.94 153.68 572.47 153.63C572.6 153.63 572.73 153.63 572.86 153.63C582.74 153.63 592.3 160.45 594.98 170.03C598.16 181.4 591.22 194.49 579.88 198C578.56 198.67 577.15 199.22 575.67 199.64C573.68 200.17 571.69 200.44 569.69 200.44M499.24 189.36C491.52 189.36 483.83 186.39 477.68 179.48C475.53 177.07 473.63 174.22 472.04 171.1C470.96 170.28 469.95 169.37 469.06 168.31C460.1 157.64 457.1 144.7 462.63 131.59C467.95 118.99 479.87 110.9 493.62 110.45C494.05 110.44 494.48 110.43 494.91 110.43C519.81 110.43 538.22 134.05 534.99 158.09C532.63 175.68 515.83 189.36 499.24 189.36" id="b2roxwKtyG"></path><path d="M166.88 460.15C166.23 441.39 230.29 387.03 230.29 387.03C230.29 387.03 213.6 474.79 213.9 541.83C201.87 525.03 167.41 475.63 166.88 460.15ZM454.98 353.95C455.2 352.63 455.42 351.31 455.64 349.99C455.66 349.77 455.68 349.54 455.7 349.26C455.8 347.87 455.87 346.47 455.92 345.08C456.09 340.7 456.08 336.31 456.15 331.93C456.18 330.13 456.23 328.31 456.29 326.49C445.56 313.59 415.99 285.84 352.58 273.16C352.58 273.16 288.85 259.24 258.76 275.74C230.69 291.14 113.82 398.68 100.24 436.86C86.65 475.03 166.23 582.44 166.23 582.44C171.01 579.21 209.25 553.4 214.03 550.17C214.58 570.19 216.87 587.82 221.88 599.91C335.76 639.38 398.44 603.99 398.44 603.99C398.44 603.99 451.78 372.53 454.98 353.95" id="h1y94Q4ruC"></path><path d="M353.23 229.16C341.97 259.05 335.71 275.66 334.46 278.98C334.46 278.98 360.34 317.15 370.05 323.62C381.05 316.51 379.11 284.15 379.11 284.15C380.1 282.21 385.06 272.51 393.99 255.04L353.23 229.16" id="h56S3HVcx"></path><path d="M232.44 566.61C227.47 563.02 222.41 559.27 217.15 556.12C213.71 554.06 211.14 553.04 207.35 554.69C202.96 556.6 198.9 560.32 194.9 562.99C189.65 566.49 184.35 569.92 179.19 573.55C177.13 575 176.48 577.12 176.73 579.11C175.32 592.38 185.71 618.47 202.06 616.85C205.68 616.49 207.82 614.84 210.17 612.29C211.51 610.83 210.71 610.27 212.36 609.71C213.49 609.33 215.37 609.98 216.71 609.76C220.17 609.2 223.31 607.33 225.43 604.54C226.5 603.14 226.77 600.78 227.78 599.57C228.39 598.85 229.31 598.86 230.83 598.59C237.64 597.41 243.94 593.02 244.73 585.71C245.67 577.01 238.76 571.19 232.44 566.61" id="bDnLgHjCu"></path><path d="M368.76 339.32C368.57 339.32 368.39 339.28 368.21 339.21C351.72 332.62 327.09 284.91 326.05 282.88C325.68 282.16 325.96 281.28 326.68 280.92C327.4 280.55 328.28 280.83 328.64 281.55C328.89 282.03 353.09 328.92 368.62 336.21C388.29 323.08 386.73 295.53 386.71 295.25C386.66 294.45 387.27 293.75 388.07 293.7C388.83 293.65 389.57 294.26 389.62 295.06C389.7 296.28 391.37 325.2 369.54 339.09C369.3 339.24 369.03 339.32 368.76 339.32" id="c10lyBcnDS"></path><path d="M272.35 348.86C247.11 371.76 233.09 384.49 230.29 387.03C230.29 387.03 225.14 405.12 223.03 427.7C248.08 404.58 272.35 348.86 272.35 348.86" id="a2auEYHcq4"></path><path d="M166.88 460.15C166.79 457.61 167.9 454.43 169.85 450.81C159.86 449.73 145.34 450 133.24 457.56C147.65 456.63 161.73 463.39 168.51 467.26C167.53 464.46 166.95 462.05 166.88 460.15" id="frI6OSGen"></path><path d="M165.58 567.38C165.17 567.38 164.76 567.21 164.47 566.88C163.94 566.27 164.01 565.35 164.62 564.82C176.67 554.44 189.89 545.36 203.9 537.82C204.62 537.44 205.5 537.71 205.88 538.42C206.26 539.13 206 540.01 205.29 540.4C191.46 547.83 178.42 556.79 166.53 567.03C166.25 567.27 165.91 567.38 165.58 567.38" id="fEWbVzvaq"></path><path d="M353.23 229.16C348.72 241.12 346.22 247.76 345.72 249.09C348.69 266.71 362.95 280.28 380.48 281.47C381.38 279.71 385.88 270.9 393.99 255.04L353.23 229.16" id="b2m36JXqrV"></path><path d="M235.33 592.39C234.29 594.35 232.77 595.64 230.62 596.26C228.49 596.86 225.66 597.03 223.74 595.8C222.74 595.16 221.7 596.59 222.49 597.41C223.17 598.11 223.88 598.76 224.64 599.3C224.43 599.89 224.42 600.35 224.33 600.82C224.23 601.34 224.09 601.86 223.92 602.36C223.68 603.07 223.27 603.86 222.75 604.62C221.8 606.03 220.28 607.32 218.62 607.99C215.35 609.3 210.47 609 207.73 606.31C206.39 604.99 204.41 606.99 205.67 608.37C206.63 609.4 207.7 610.31 208.86 611.07C208.74 611.18 208.62 611.31 208.51 611.45C202.16 619.79 191.1 611.83 186.84 605.42C184.24 601.52 182.66 597.13 181.71 592.56C180.6 587.23 180.72 581.75 179.67 576.44C184.65 572.32 189.44 568.06 194.86 564.5C198.97 561.81 203.27 559.49 207.68 557.38C207.69 557.38 207.7 557.39 207.7 557.39C210.39 558.94 213.36 560.07 216.12 561.5C218.73 562.84 221.29 564.27 223.76 565.85C228.61 568.95 233.22 572.73 236.62 577.43C238.3 579.75 240.06 582.56 239.75 585.56C239.45 588.55 236.66 589.88 235.33 592.39ZM239.56 572.59C236.07 568.18 231.66 564.58 226.96 561.53C224.34 559.82 221.61 558.29 218.83 556.86C217.1 555.97 215.33 555.04 213.53 554.2C213.89 553.45 213.88 552.48 213.49 551.79C212.79 550.55 211.35 550.38 210.17 550.92C203.82 553.79 197.9 557.59 192.39 561.83C187.01 565.98 181.71 570.56 177.74 576.11C177.52 576.42 177.58 576.71 177.76 576.91C176.24 582.86 176.73 589.81 178.02 595.72C179.2 601.09 181.42 606.26 184.81 610.61C188.22 614.98 192.99 618.68 198.55 619.7C203.75 620.64 210.15 618.93 212.8 613.95C212.98 613.6 213.08 613.26 213.12 612.94C215.45 613.52 217.92 613.46 220.34 612.5C223 611.44 225.2 609.68 226.87 607.36C228.13 605.62 229.33 603.13 229.4 600.81C231.17 600.88 232.89 600.54 234.56 599.79C236.69 598.83 238.4 597.23 239.52 595.17C240.25 593.82 241.1 593.19 242.14 592.1C243.15 591.05 243.87 589.79 244.35 588.41C246.33 582.66 243.01 576.97 239.56 572.59" id="b3ZW18BU0D"></path><path d="M322.34 173.45C322.34 173.45 295.2 172.42 299.38 193.08C303.55 213.74 323.36 208.24 323.36 208.24C323.36 208.24 345.82 281.13 400.63 278.82C449.69 276.75 429.69 205.6 430.3 193.66C430.9 181.71 442.39 158.95 422.83 128.44C407.05 103.81 360.71 113.24 335.27 125.78C309.82 138.33 310.86 155.89 322.34 173.45" id="fv2uJZqjk"></path><path d="M375.78 214.12C373.45 214.12 370.85 213.62 368.28 212.58C361.25 209.75 356.99 203.96 358.77 199.64C359.89 196.91 363.16 195.43 367.2 195.43C369.53 195.43 372.12 195.93 374.7 196.97C381.72 199.8 385.98 205.59 384.21 209.9C383.09 212.64 379.81 214.12 375.78 214.12" id="esFBCJyIg"></path><path d="M430.81 200.25C430.45 197.36 430.23 195.08 430.3 193.66C430.45 190.78 430.83 187.02 431.15 182.61C429.67 182.85 428.13 183.27 426.6 183.89C419.58 186.72 415.32 192.51 417.09 196.82C418.68 200.68 424.56 202.04 430.81 200.25" id="fDR2YnAh"></path><path d="M416.21 208.11C414.23 203.55 410.62 199.99 408.98 195.24C407.25 190.23 406.58 185.02 405.94 179.79C405.81 178.71 404.19 178.63 404.18 179.79C404.11 184.27 404.14 188.81 404.97 193.23C405.8 197.62 407.92 201.39 410.31 205.11C412.32 208.22 415.11 212.35 412.61 215.97C410.55 218.96 406.4 220.08 403.08 220.99C400.74 221.63 401.73 225.24 404.08 224.59C407.81 223.56 411.91 222.23 414.62 219.34C417.58 216.19 417.89 211.96 416.21 208.11" id="e2WgFAnd"></path><path d="M325.89 197.53C325.58 196.38 325.16 195.26 324.66 194.18C324.55 193.95 324.42 193.74 324.3 193.52C324.36 193.28 324.3 193.01 324.06 192.86C324.04 192.85 323.91 192.76 323.89 192.75C322.9 191.11 321.6 189.65 320.05 188.52C318.2 187.18 315.93 186.45 313.65 186.37C311.45 186.29 309.01 186.83 307.55 188.56C307.08 189.12 307.51 190.22 308.35 189.92C310.04 189.31 311.77 188.82 313.58 189.09C315.3 189.34 317.06 190.12 318.37 191.26C318.59 191.46 318.79 191.68 319 191.89C318.36 192.03 317.73 192.25 317.14 192.54C314.79 193.69 313.46 196.14 313.26 198.66C313.21 199.36 313.28 200.06 313.41 200.74C313.47 201.06 313.56 201.37 313.69 201.67C313.96 202.31 314.29 202.68 314.98 202.92C315.64 203.15 316.32 202.65 316.52 202.05C316.8 201.22 316.35 200.53 316.18 199.73C316.18 199.72 316.16 199.64 316.14 199.5C316.12 199.29 316.11 199.17 316.11 199.15C316.09 198.82 316.11 198.5 316.13 198.18C316.13 198.18 316.13 198.16 316.13 198.12C316.14 198.05 316.15 198.01 316.15 198C316.18 197.87 316.21 197.73 316.24 197.59C316.28 197.43 316.33 197.27 316.38 197.12C316.39 197.09 316.48 196.85 316.49 196.82C316.6 196.58 316.72 196.35 316.86 196.12C316.94 195.98 317.03 195.85 317.13 195.72C316.98 195.92 317.28 195.55 317.31 195.51C317.53 195.27 317.77 195.05 318.02 194.84C318.02 194.83 318.04 194.81 318.08 194.78C318.12 194.75 318.15 194.74 318.16 194.73C318.29 194.65 318.43 194.55 318.57 194.47C319.11 194.16 319.46 194.02 320.11 193.87C320.24 193.83 320.38 193.83 320.51 193.81C320.94 194.49 321.32 195.19 321.63 195.93C322.01 196.83 322.3 197.77 322.53 198.72C322.77 199.72 322.8 200.82 323.15 201.78C323.84 203.63 326.27 203.22 326.5 201.33C326.65 200.12 326.22 198.7 325.89 197.53" id="c1U1LfKW1C"></path><path d="M332.73 186.74C332.73 186.74 324.03 163.72 300.41 181.23C292.78 174.16 288.95 151.57 288.92 139.1C288.89 126.62 311.92 120.83 311.92 120.83C311.92 120.83 324.57 107.67 357.96 96.78C391.36 85.89 439.93 89.82 439.93 89.82C437.66 90.75 419.48 98.18 417.21 99.11C417.21 99.11 436.51 101.92 455.84 117.2C447.78 120.47 427.25 116.14 427.25 116.14C427.25 116.14 451.25 127.09 457.66 138.87C445.54 147.25 397.94 134.41 397.94 134.41C398.54 136 403.31 148.72 403.9 150.31C403.9 150.31 370.13 144.81 361.22 140.23C362.47 145.07 351.36 157.02 351.36 157.02C350.32 156.48 341.99 152.2 340.94 151.66C340.94 151.66 337.35 173.98 343.64 184.82C344.06 185.32 332.73 186.74 332.73 186.74" id="amm9yosQk"></path><path d="M386.89 188.71C387.08 187.44 386.11 185.8 384.68 185.73C380.27 185.54 375.85 185.36 371.44 185.37C369.28 185.38 367.11 185.42 364.95 185.44C363.88 185.45 362.79 185.49 361.72 185.59C360.94 185.65 360.33 185.83 359.72 185.64C359.52 185.53 359.29 185.48 359.07 185.53C358.88 185.58 358.74 185.65 358.58 185.76C358.2 186.02 357.98 186.62 358.18 187.05C359.03 188.82 361.3 188.84 363.02 189.1C365.31 189.46 367.64 189.64 369.95 189.88C374.58 190.37 379.23 190.65 383.88 190.89C385.3 190.96 386.65 190.21 386.89 188.71" id="aqh3tIoHg"></path><path d="M386.03 173.45C382.71 170.52 376.73 170.04 372.42 169.85C368.29 169.67 362.81 169.8 359.69 172.84C357.74 174.74 358.23 177.27 360.59 178.53C363.71 180.19 367.87 179.92 371.33 180.44C375 180.98 378.63 183.09 382.3 183.09C387.78 183.1 390.15 177.08 386.03 173.45" id="a4S74TwiW"></path><path d="M430.85 162.04C426.88 160.38 422.03 162.07 418.31 163.88C414.44 165.76 411.66 168.04 408.73 171.1C406.12 173.82 409.89 177.98 413.05 176.7C415.9 175.54 419.11 174.6 422.13 174.01C425.61 173.33 429.1 173.44 432.1 171.37C435.59 168.96 434.53 163.59 430.85 162.04" id="a1afo89igP"></path><path d="M398.31 97.31C396.58 96.6 394.75 96.85 392.95 97.06C390.25 97.38 387.54 97.73 384.85 98.12C374.2 99.66 363.46 101.88 353.37 105.63C347.74 107.72 342.31 110.19 337.19 113.3C334.77 114.77 332.35 116.31 330.12 118.04C328.14 119.57 325.26 122.22 324.9 124.81C324.81 125.45 325.34 126.08 325.98 126.15C328.2 126.37 330.84 124.92 332.8 124C335.2 122.87 337.48 121.5 339.9 120.39C344.59 118.24 349.42 116.31 354.32 114.72C364.03 111.57 374.38 109.43 384.67 107.9C387.37 107.49 390.07 107.14 392.78 106.81C396.09 106.42 400.72 106.22 401.19 101.96C401.41 99.99 400.14 98.06 398.31 97.31" id="a4nWOwTMs"></path><path d="M308.98 129.86C302.87 130.26 297.88 135.14 296.08 140.77C295.01 144.12 295.01 147.87 295.71 151.31C296.09 153.19 296.72 155.05 297.44 156.82C298.31 158.98 299.17 161.25 301.5 162.19C304.13 163.25 306.44 161.39 306.98 158.92C307.39 157.05 306.2 155.43 305.47 153.8C305.21 153.22 304.97 152.64 304.75 152.06C304.61 151.69 304.48 151.32 304.35 150.95C304.35 150.94 304.32 150.88 304.28 150.76C304.26 150.7 304.25 150.67 304.25 150.66C303.43 147.95 303.13 145.72 303.46 143.17C303.52 142.67 303.59 142.18 303.69 141.69C303.7 141.65 303.78 141.39 303.79 141.36C303.88 141.12 303.95 140.87 304.04 140.63C304.47 139.47 304.75 138.94 305.38 138.06C306.41 136.64 307.92 135.17 309.77 134.64C312.76 133.78 312.18 129.65 308.98 129.86" id="cjW2X8Wkf"></path><path d="M308.68 168.7C308.76 168.17 308.7 167.67 308.51 167.18C308.4 166.69 308.18 166.25 307.84 165.86C307.53 165.45 307.14 165.14 306.68 164.93C306.24 164.64 305.76 164.47 305.22 164.44C304.69 164.36 304.18 164.41 303.69 164.6C303.2 164.7 302.75 164.92 302.36 165.26C302.13 165.5 301.9 165.73 301.67 165.97C301.25 166.53 301 167.16 300.93 167.85C300.94 168.19 300.94 168.54 300.95 168.88C301.07 169.55 301.34 170.15 301.77 170.68C302 170.91 302.24 171.14 302.48 171.37C302.9 171.7 303.36 171.9 303.87 171.98C304.38 172.15 304.89 172.19 305.43 172.08C305.76 172.06 306.06 171.97 306.34 171.82C307 171.56 307.57 171.11 307.97 170.52C308.18 170.29 308.33 170.02 308.43 169.7C308.51 169.37 308.59 169.03 308.68 168.7" id="a6TdZPwGWX"></path><path d="M397.61 424.61C393.9 427.44 390.22 430.29 386.9 433.58C383.56 436.89 380.33 440.29 377.26 443.86C371.07 451.05 365.35 458.64 360.16 466.6C349.81 482.47 341.46 499.65 335.31 517.57C331.84 527.7 329.08 538.03 327.66 548.65C327.41 550.5 328.1 552.36 330.07 552.91C331.82 553.39 333.91 552.32 334.33 550.49C338.4 532.6 343.24 514.95 350.75 498.16C358.31 481.27 367.97 465.32 379.28 450.68C382.41 446.62 385.68 442.65 389.03 438.77C392.47 434.79 395.81 430.72 399.25 426.74C400.19 425.66 398.92 423.62 397.61 424.61" id="aaAJx6OLM"></path><path d="M350.82 282.11C340.17 284.31 334.25 285.53 333.07 285.78C333.07 285.78 323.56 311.01 311.87 311.68C300.17 312.35 297.26 299.06 297.26 299.06C297.26 299.06 292.81 307.69 281.43 306.34C270.04 304.98 261.42 300.54 264.16 293.51C262.78 293.09 259.66 282.46 265.61 278.83C264.97 278.94 258.89 270.12 266 265.64C264.4 263.94 258.94 251.08 269.68 248.61C281.91 247.19 292.66 248.65 292.66 248.65C292.66 248.65 303.25 242.43 316.66 246.06C329.84 249.63 332.14 257.06 332.14 257.06C333.14 256.76 338.14 255.25 347.13 252.55L350.82 282.11" id="e1ffUEG68O"></path><path d="M283.36 266.71C285.86 266.24 288.55 265.64 290.97 264.63C291.02 265.17 291.29 265.7 291.89 266.1C295.28 268.32 295 272.41 292.35 275.17C289.36 278.28 284.68 279.7 280.47 279.91C276.28 280.13 271.42 279.11 268.21 276.25C266.82 275.02 265.77 273.44 265.7 271.54C265.64 269.65 266.56 267.75 268.33 266.96C268.7 266.8 268.89 266.51 268.95 266.19C270.53 266.91 272.25 267.35 273.91 267.47C277.04 267.7 280.28 267.29 283.36 266.71ZM292.87 280.85C293.61 282.15 294.26 283.3 294.2 284.92C294.13 286.72 293.42 288.48 292.28 289.87C289.5 293.26 284.39 293.89 280.29 293.71C276.15 293.53 271.26 292.76 268.17 289.72C265.67 287.26 265.08 283.63 266.53 280.56C268.05 281.68 269.78 282.54 271.51 283.15C278 285.42 286.84 284.93 292.87 280.85ZM279.23 305.53C275.43 305.15 271.12 303.97 268.45 301.05C266.63 299.06 266 296.27 266.83 293.81C268.45 295.09 270.36 296.05 272.27 296.65C278.46 298.59 286.96 298.86 292.67 295.14C293.06 297.58 292.29 300.01 290.56 302.03C287.81 305.23 283.21 305.92 279.23 305.53ZM262.82 256.96C262.48 260.42 264.22 263.14 266.78 264.95C263.25 266.09 261.3 270.12 261.95 273.74C262.3 275.7 263.25 277.38 264.53 278.78C261.89 281.18 261.83 285.41 262.93 288.59C263.4 289.93 264.17 291.12 265.1 292.17C263.42 294.12 262.95 297 263.54 299.52C264.46 303.44 267.78 306.15 271.29 307.75C278.96 311.24 290.26 311.03 295.12 303.07C295.73 302.08 296.2 301.02 296.54 299.93C297.07 303.7 298.71 307.22 301.91 309.55C307.81 313.84 315.91 312.37 321.33 308.09C328.5 302.43 331.92 292.89 333.59 284.21C333.72 283.51 332.69 283.17 332.32 283.73C328.77 289.13 326.97 295.5 323.09 300.73C319.77 305.21 314.78 308.78 308.96 308.08C303 307.36 300.19 302.09 300.48 296.49C300.63 293.55 301.31 290.38 303.01 287.93C304.72 285.49 307.74 283.93 310.6 283.28C313.85 282.53 314.45 285.58 314.17 288.19C313.81 291.59 312.18 294.58 310.89 297.69C310.21 299.34 312.53 301.18 313.86 299.8C318 295.5 321.4 284.97 315.98 280.29C313.12 277.81 309.15 278.91 306.01 280.38C306.03 280.36 306.21 280.19 306.23 280.17C310.22 276.66 315.09 274.37 320.36 273.64C323.87 273.16 322.95 267.71 319.44 268.21C313.18 269.12 307.23 272.18 302.8 276.69C301.09 278.43 299.61 280.33 298.34 282.39C298.03 280.72 297.29 279.2 295.96 278.16C296.75 277.24 297.45 276.23 298.01 275.1C300.09 270.95 299.1 264.56 294.53 262.54C296.29 261.01 297.5 258.9 297.25 256.45C296.94 253.34 293.73 250.57 290.64 252.05C288.96 252.86 289.46 255.3 291.24 255.56C292.94 255.81 293.34 257.15 292.46 258.52C291.35 260.25 288.89 260.9 287.04 261.45C282.8 262.71 278 263.7 273.57 263.2C269.97 262.8 265.63 260.17 267.07 255.95C268.46 251.84 273.18 250.54 277.02 249.95C279.77 249.52 282.57 249.31 285.35 249.35C287.18 249.37 289.1 249.71 290.98 249.78C291.6 250.67 292.76 251.19 293.83 250.61C293.85 250.6 293.98 250.53 293.99 250.52C293.48 250.1 292.97 249.71 292.43 249.34C291.44 248.79 290.46 248.21 289.5 247.57C289.12 247.32 288.83 247.04 288.59 246.75C287.09 246.55 285.58 246.48 284.23 246.41C281.04 246.23 277.8 246.37 274.65 246.9C269.27 247.81 263.42 250.93 262.82 256.96" id="a6qBejwnp"></path><path d="M299.9 243.36C298.01 244.07 296.04 245.21 294.68 246.71C294.46 246.96 293.78 247.99 293.47 248.05C293.26 248.09 292.23 247.65 292.07 247.61C290.77 247.28 289.41 247.18 288.11 246.86C287.32 246.66 286.93 247.67 287.66 248.04C289.69 249.07 291.88 251.13 294.29 251.09C296.23 251.07 298.26 249.15 300.08 248.46C304.23 246.87 309.01 247.02 313.19 248.42C317.67 249.92 321.59 252.62 325.3 255.49C327.14 256.91 328.82 258.63 331.27 258.78C333.76 258.93 336.69 258.34 339.12 257.87C342.13 257.3 341.75 253.28 338.95 252.73C338.5 252.64 338.04 252.55 337.59 252.46C336.69 252.28 336.02 252.57 335.6 253.09C335.18 253.15 334.77 253.21 334.35 253.27C333.41 253.4 332.17 253.85 331.3 253.46C330.44 253.07 329.62 252.09 328.89 251.5C327.93 250.72 326.96 249.94 325.96 249.21C322.18 246.44 317.9 244.07 313.34 242.9C308.91 241.77 304.22 241.74 299.9 243.36" id="a4NRJEjfCe"></path><path d="M388.55 203.51C386.98 198.8 381.74 195.82 376.92 195.53C372.3 195.26 366.85 197.8 365.14 202.25C364.61 203.65 366.5 204.34 367.43 203.57C370.13 201.35 373.09 199.51 376.78 200.01C378.25 200.21 379.71 200.84 380.97 201.76C382.27 202.69 383.27 204.18 384.1 205.37C384.79 206.35 385.98 206.86 387.14 206.35C388.2 205.89 388.94 204.67 388.55 203.51" id="dC2CJXtFx"></path><path d="M428.17 188.33C428.01 188.23 427.85 188.15 427.68 188.1C426.25 187.7 424.61 188.01 423.24 188.51C421.8 189.04 420.53 189.76 419.37 190.78C418.36 191.67 417.47 192.77 416.83 193.96C416.46 194.64 416.15 195.38 415.93 196.13C415.61 197.22 415.64 198.23 416.13 199.26C416.45 199.92 417.27 200.31 417.97 200.31C418.79 200.31 419.35 199.88 419.81 199.26C420.26 198.68 420.4 197.95 420.6 197.26C420.68 196.98 420.77 196.71 420.88 196.44C420.88 196.44 420.88 196.44 420.88 196.44C420.98 196.23 421.04 196.11 421.05 196.09C421.17 195.85 421.3 195.62 421.45 195.39C421.53 195.26 421.62 195.13 421.71 195C421.71 194.99 421.74 194.96 421.79 194.89C421.74 194.95 421.71 194.98 421.7 194.98C422.11 194.59 422.44 194.13 422.86 193.75C423.07 193.56 423.31 193.38 423.53 193.19C423.53 193.19 423.53 193.19 423.53 193.19C423.72 193.06 423.82 192.99 423.84 192.97C424.08 192.81 424.33 192.66 424.59 192.52C424.64 192.5 424.89 192.38 425.34 192.16C425.36 192.15 425.37 192.15 425.37 192.15C425.49 192.1 425.62 192.06 425.75 192.01C426.05 191.92 426.36 191.86 426.66 191.77C427.11 191.64 427.6 191.54 428.02 191.33C428.02 191.33 428.04 191.32 428.04 191.32C428.7 191.24 429.24 190.42 429.21 189.8C429.19 189.19 428.79 188.52 428.17 188.33" id="gSyBtPdoW"></path><path d="M421.79 194.89C422.04 194.66 421.91 194.76 421.79 194.89" id="lf1Rb327u"></path><path d="M332.88 244.32C334.74 273.56 335.78 289.8 335.98 293.05C335.98 293.05 461.45 272.12 459.56 289.06C458.23 301.02 403.75 290.39 403.75 290.39C404.55 296.77 410.93 347.79 411.72 354.17C411.72 354.17 548.6 355.5 536.64 258.5C530.06 205.15 392.23 223.06 332.88 244.32" id="b1S47PAZzS"></path><path d="M359.41 268.09C360.83 274.24 361.81 280.49 362.33 286.82C362.4 287.62 361.8 288.33 361 288.39C360.2 288.46 359.49 287.87 359.43 287.06C358.28 273.26 354.93 259.82 349.45 247.1C349.12 246.36 349.47 245.5 350.21 245.18C350.95 244.86 351.81 245.2 352.13 245.95C355.22 253.12 357.65 260.53 359.41 268.09" id="gOhSHiNm0"></path></defs><g><g><g><use xlink:href="#bm71wc9vL" opacity="1" fill="#6c63ff" fill-opacity="1"></use></g><g><use xlink:href="#b2roxwKtyG" opacity="1" fill="#fcd4b7" fill-opacity="1"></use><g><use xlink:href="#b2roxwKtyG" opacity="1" fill-opacity="0" stroke="#000000" stroke-width="1" stroke-opacity="0"></use></g></g><g><use xlink:href="#h1y94Q4ruC" opacity="1" fill="#c34721" fill-opacity="1"></use><g><use xlink:href="#h1y94Q4ruC" opacity="1" fill-opacity="0" stroke="#000000" stroke-width="1" stroke-opacity="0"></use></g></g><g><use xlink:href="#h56S3HVcx" opacity="1" fill="#f79c71" fill-opacity="1"></use><g><use xlink:href="#h56S3HVcx" opacity="1" fill-opacity="0" stroke="#000000" stroke-width="1" stroke-opacity="0"></use></g></g><g><use xlink:href="#bDnLgHjCu" opacity="1" fill="#f79c71" fill-opacity="1"></use><g><use xlink:href="#bDnLgHjCu" opacity="1" fill-opacity="0" stroke="#000000" stroke-width="1" stroke-opacity="0"></use></g></g><g><use xlink:href="#c10lyBcnDS" opacity="1" fill="#9e321e" fill-opacity="1"></use><g><use xlink:href="#c10lyBcnDS" opacity="1" fill-opacity="0" stroke="#000000" stroke-width="1" stroke-opacity="0"></use></g></g><g><use xlink:href="#a2auEYHcq4" opacity="1" fill="#9e321e" fill-opacity="1"></use><g><use xlink:href="#a2auEYHcq4" opacity="1" fill-opacity="0" stroke="#000000" stroke-width="1" stroke-opacity="0"></use></g></g><g><use xlink:href="#frI6OSGen" opacity="1" fill="#9e321e" fill-opacity="1"></use><g><use xlink:href="#frI6OSGen" opacity="1" fill-opacity="0" stroke="#000000" stroke-width="1" stroke-opacity="0"></use></g></g><g><use xlink:href="#fEWbVzvaq" opacity="1" fill="#9e321e" fill-opacity="1"></use><g><use xlink:href="#fEWbVzvaq" opacity="1" fill-opacity="0" stroke="#000000" stroke-width="1" stroke-opacity="0"></use></g></g><g><use xlink:href="#b2m36JXqrV" opacity="1" fill="#e07c51" fill-opacity="1"></use><g><use xlink:href="#b2m36JXqrV" opacity="1" fill-opacity="0" stroke="#000000" stroke-width="1" stroke-opacity="0"></use></g></g><g><use xlink:href="#b3ZW18BU0D" opacity="1" fill="#e07c51" fill-opacity="1"></use><g><use xlink:href="#b3ZW18BU0D" opacity="1" fill-opacity="0" stroke="#000000" stroke-width="1" stroke-opacity="0"></use></g></g><g><use xlink:href="#fv2uJZqjk" opacity="1" fill="#f79c71" fill-opacity="1"></use><g><use xlink:href="#fv2uJZqjk" opacity="1" fill-opacity="0" stroke="#000000" stroke-width="1" stroke-opacity="0"></use></g></g><g><use xlink:href="#esFBCJyIg" opacity="1" fill="#f5796e" fill-opacity="1"></use><g><use xlink:href="#esFBCJyIg" opacity="1" fill-opacity="0" stroke="#000000" stroke-width="1" stroke-opacity="0"></use></g></g><g><use xlink:href="#fDR2YnAh" opacity="1" fill="#f4696c" fill-opacity="1"></use><g><use xlink:href="#fDR2YnAh" opacity="1" fill-opacity="0" stroke="#000000" stroke-width="1" stroke-opacity="0"></use></g></g><g><use xlink:href="#e2WgFAnd" opacity="1" fill="#bc5733" fill-opacity="1"></use><g><use xlink:href="#e2WgFAnd" opacity="1" fill-opacity="0" stroke="#000000" stroke-width="1" stroke-opacity="0"></use></g></g><g><use xlink:href="#c1U1LfKW1C" opacity="1" fill="#e07c51" fill-opacity="1"></use><g><use xlink:href="#c1U1LfKW1C" opacity="1" fill-opacity="0" stroke="#000000" stroke-width="1" stroke-opacity="0"></use></g></g><g><use xlink:href="#amm9yosQk" opacity="1" fill="#4c1724" fill-opacity="1"></use><g><use xlink:href="#amm9yosQk" opacity="1" fill-opacity="0" stroke="#000000" stroke-width="1" stroke-opacity="0"></use></g></g><g><use xlink:href="#aqh3tIoHg" opacity="1" fill="#bc5733" fill-opacity="1"></use><g><use xlink:href="#aqh3tIoHg" opacity="1" fill-opacity="0" stroke="#000000" stroke-width="1" stroke-opacity="0"></use></g></g><g><use xlink:href="#a4S74TwiW" opacity="1" fill="#4c1724" fill-opacity="1"></use><g><use xlink:href="#a4S74TwiW" opacity="1" fill-opacity="0" stroke="#000000" stroke-width="1" stroke-opacity="0"></use></g></g><g><use xlink:href="#a1afo89igP" opacity="1" fill="#4c1724" fill-opacity="1"></use><g><use xlink:href="#a1afo89igP" opacity="1" fill-opacity="0" stroke="#000000" stroke-width="1" stroke-opacity="0"></use></g></g><g><use xlink:href="#a4nWOwTMs" opacity="1" fill="#6b2338" fill-opacity="1"></use><g><use xlink:href="#a4nWOwTMs" opacity="1" fill-opacity="0" stroke="#000000" stroke-width="1" stroke-opacity="0"></use></g></g><g><use xlink:href="#cjW2X8Wkf" opacity="1" fill="#6b2338" fill-opacity="1"></use><g><use xlink:href="#cjW2X8Wkf" opacity="1" fill-opacity="0" stroke="#000000" stroke-width="1" stroke-opacity="0"></use></g></g><g><use xlink:href="#a6TdZPwGWX" opacity="1" fill="#6b2338" fill-opacity="1"></use><g><use xlink:href="#a6TdZPwGWX" opacity="1" fill-opacity="0" stroke="#000000" stroke-width="1" stroke-opacity="0"></use></g></g><g><use xlink:href="#aaAJx6OLM" opacity="1" fill="#9e321e" fill-opacity="1"></use><g><use xlink:href="#aaAJx6OLM" opacity="1" fill-opacity="0" stroke="#000000" stroke-width="1" stroke-opacity="0"></use></g></g><g><use xlink:href="#e1ffUEG68O" opacity="1" fill="#f79c71" fill-opacity="1"></use><g><use xlink:href="#e1ffUEG68O" opacity="1" fill-opacity="0" stroke="#000000" stroke-width="1" stroke-opacity="0"></use></g></g><g><use xlink:href="#a6qBejwnp" opacity="1" fill="#e07c51" fill-opacity="1"></use><g><use xlink:href="#a6qBejwnp" opacity="1" fill-opacity="0" stroke="#000000" stroke-width="1" stroke-opacity="0"></use></g></g><g><use xlink:href="#a4NRJEjfCe" opacity="1" fill="#e07c51" fill-opacity="1"></use><g><use xlink:href="#a4NRJEjfCe" opacity="1" fill-opacity="0" stroke="#000000" stroke-width="1" stroke-opacity="0"></use></g></g><g><use xlink:href="#dC2CJXtFx" opacity="1" fill="#040606" fill-opacity="1"></use><g><use xlink:href="#dC2CJXtFx" opacity="1" fill-opacity="0" stroke="#000000" stroke-width="1" stroke-opacity="0"></use></g></g><g><use xlink:href="#gSyBtPdoW" opacity="1" fill="#040606" fill-opacity="1"></use><g><use xlink:href="#gSyBtPdoW" opacity="1" fill-opacity="0" stroke="#000000" stroke-width="1" stroke-opacity="0"></use></g></g><g><use xlink:href="#lf1Rb327u" opacity="1" fill="#040606" fill-opacity="1"></use><g><use xlink:href="#lf1Rb327u" opacity="1" fill-opacity="0" stroke="#000000" stroke-width="1" stroke-opacity="0"></use></g></g><g><use xlink:href="#b1S47PAZzS" opacity="1" fill="#c34721" fill-opacity="1"></use><g><use xlink:href="#b1S47PAZzS" opacity="1" fill-opacity="0" stroke="#000000" stroke-width="1" stroke-opacity="0"></use></g></g><g><use xlink:href="#gOhSHiNm0" opacity="1" fill="#9e321e" fill-opacity="1"></use><g><use xlink:href="#gOhSHiNm0" opacity="1" fill-opacity="0" stroke="#000000" stroke-width="1" stroke-opacity="0"></use></g></g></g></g></svg>