<?xml version="1.0" encoding="UTF-8"?>
<svg xmlns="http://www.w3.org/2000/svg" xmlns:xlink="http://www.w3.org/1999/xlink" width="628pt" height="628pt" viewBox="0 0 628 628" version="1.1">
<g id="surface1">
<path style="fill-rule:evenodd;fill:rgb(42.352941%,38.823529%,100%);fill-opacity:1;stroke-width:1.89924;stroke-linecap:butt;stroke-linejoin:miter;stroke:rgb(42.352941%,38.823529%,100%);stroke-opacity:1;stroke-miterlimit:4;" d="M 585.000753 292.99986 C 585.000753 454.267362 454.267362 585.000753 292.99986 585.000753 C 131.732358 585.000753 0.998967 454.267362 0.998967 292.99986 C 0.998967 131.732358 131.732358 0.998967 292.99986 0.998967 C 454.267362 0.998967 585.000753 131.732358 585.000753 292.99986 Z M 585.000753 292.99986 " transform="matrix(1.07142,0,0,1.07142,0,0)"/>
<path style=" stroke:none;fill-rule:evenodd;fill:rgb(80%,91.372549%,97.254902%);fill-opacity:1;" d="M 313.925781 587.136719 C 463.925781 587.136719 587.136719 463.925781 587.136719 313.925781 C 587.136719 162.855469 463.925781 39.640625 313.925781 39.640625 C 162.855469 39.640625 39.640625 162.855469 39.640625 313.925781 C 39.640625 463.925781 162.855469 587.136719 313.925781 587.136719 Z M 313.925781 587.136719 "/>
<path style=" stroke:none;fill-rule:evenodd;fill:rgb(66.666667%,86.27451%,93.72549%);fill-opacity:1;" d="M 520.710938 492.851562 C 517.496094 496.066406 515.351562 498.210938 512.136719 501.425781 C 512.136719 501.425781 511.066406 502.496094 511.066406 502.496094 C 507.851562 505.710938 504.636719 508.925781 501.425781 512.136719 L 500.351562 508.925781 C 434.996094 504.636719 325.710938 501.425781 325.710938 501.425781 L 99.640625 219.640625 L 169.285156 211.070312 L 173.570312 167.140625 L 412.496094 409.28125 L 478.925781 460.710938 L 406.066406 290.355469 L 440.351562 286.070312 L 326.78125 145.714844 L 381.425781 139.285156 L 384.640625 105 L 572.136719 294.640625 L 587.136719 306.425781 C 587.136719 308.570312 587.136719 310.710938 587.136719 313.925781 C 587.136719 332.140625 584.996094 351.425781 581.78125 368.566406 C 572.136719 415.710938 550.710938 457.496094 520.710938 492.851562 Z M 520.710938 492.851562 "/>
<path style=" stroke:none;fill-rule:evenodd;fill:rgb(2.745098%,47.45098%,25.098039%);fill-opacity:1;" d="M 452.140625 452.140625 C 451.066406 454.28125 451.066406 457.496094 451.066406 459.640625 C 451.066406 472.496094 461.78125 483.210938 474.640625 483.210938 C 483.210938 483.210938 491.78125 477.851562 494.996094 469.28125 C 499.28125 473.566406 504.636719 475.710938 511.066406 475.710938 C 523.925781 475.710938 534.636719 464.996094 534.636719 452.140625 C 534.636719 439.28125 523.925781 428.566406 511.066406 428.566406 C 511.066406 428.566406 509.996094 428.566406 509.996094 428.566406 C 509.996094 428.566406 509.996094 427.496094 509.996094 426.425781 C 509.996094 413.566406 500.351562 402.855469 487.496094 402.855469 C 485.351562 402.855469 482.140625 403.925781 479.996094 403.925781 C 476.78125 397.496094 471.425781 393.210938 464.996094 393.210938 C 454.28125 393.210938 445.710938 403.925781 445.710938 416.78125 C 445.710938 421.066406 446.78125 425.355469 448.925781 428.566406 C 447.851562 431.78125 446.78125 433.925781 446.78125 437.140625 C 446.78125 442.496094 448.925781 447.851562 452.140625 452.140625 Z M 452.140625 452.140625 "/>
<path style=" stroke:none;fill-rule:evenodd;fill:rgb(2.745098%,47.45098%,25.098039%);fill-opacity:1;" d="M 171.425781 452.140625 C 172.5 454.28125 172.5 457.496094 172.5 459.640625 C 172.5 472.496094 161.785156 483.210938 148.925781 483.210938 C 140.355469 483.210938 131.785156 477.851562 128.570312 469.28125 C 124.285156 473.566406 118.925781 475.710938 112.5 475.710938 C 99.640625 475.710938 88.929688 464.996094 88.929688 452.140625 C 88.929688 439.28125 99.640625 428.566406 112.5 428.566406 C 112.5 428.566406 113.570312 428.566406 113.570312 428.566406 C 113.570312 428.566406 113.570312 427.496094 113.570312 426.425781 C 113.570312 413.566406 123.214844 402.855469 136.070312 402.855469 C 138.214844 402.855469 141.425781 403.925781 142.5 403.925781 C 146.785156 397.496094 152.140625 393.210938 158.570312 393.210938 C 169.285156 393.210938 177.855469 403.925781 177.855469 416.78125 C 177.855469 421.066406 176.785156 425.355469 174.640625 428.566406 C 175.710938 431.78125 176.785156 433.925781 176.785156 437.140625 C 176.785156 442.496094 174.640625 447.851562 171.425781 452.140625 Z M 171.425781 452.140625 "/>
<path style=" stroke:none;fill-rule:evenodd;fill:rgb(89.803922%,95.686275%,98.431373%);fill-opacity:1;" d="M 462.851562 331.070312 C 454.28125 331.070312 447.851562 323.570312 447.851562 313.925781 C 447.851562 305.355469 453.210938 298.925781 461.78125 297.855469 C 461.78125 297.855469 461.78125 296.785156 461.78125 296.785156 C 461.78125 289.285156 467.140625 283.925781 473.566406 283.925781 C 475.710938 283.925781 477.851562 283.925781 478.925781 284.996094 C 481.066406 275.355469 491.78125 267.855469 503.566406 267.855469 C 516.425781 267.855469 527.136719 277.496094 528.210938 290.355469 C 539.996094 291.425781 548.566406 299.996094 548.566406 311.78125 C 548.566406 321.425781 542.136719 328.925781 532.496094 332.140625 L 518.566406 332.140625 Z M 462.851562 331.070312 "/>
<path style=" stroke:none;fill-rule:evenodd;fill:rgb(7.45098%,66.666667%,26.666667%);fill-opacity:1;" d="M 542.136719 464.996094 C 492.851562 538.925781 409.28125 587.136719 313.925781 587.136719 C 218.570312 587.136719 133.925781 538.925781 85.714844 464.996094 Z M 542.136719 464.996094 "/>
<path style=" stroke:none;fill-rule:evenodd;fill:rgb(89.803922%,95.686275%,98.431373%);fill-opacity:1;" d="M 111.425781 225 C 102.855469 225 95.355469 217.5 95.355469 207.855469 C 95.355469 199.285156 101.785156 191.785156 110.355469 190.710938 C 109.285156 189.640625 109.285156 189.640625 109.285156 188.570312 C 109.285156 182.140625 115.714844 175.710938 122.140625 175.710938 C 124.285156 175.710938 126.425781 175.710938 128.570312 176.785156 C 130.714844 166.070312 141.425781 158.570312 153.214844 158.570312 C 167.140625 158.570312 178.925781 169.285156 178.925781 182.140625 C 191.785156 183.210938 201.425781 192.855469 201.425781 204.640625 C 201.425781 214.285156 193.925781 222.855469 184.285156 226.070312 L 169.285156 226.070312 Z M 111.425781 225 "/>
<path style=" stroke:none;fill-rule:evenodd;fill:rgb(64.313725%,79.607843%,15.294118%);fill-opacity:1;" d="M 140.355469 489.640625 C 141.425781 489.640625 142.5 488.566406 142.5 486.425781 C 142.5 485.351562 141.425781 484.28125 140.355469 484.28125 C 138.214844 484.28125 137.140625 485.351562 137.140625 486.425781 C 137.140625 488.566406 138.214844 489.640625 140.355469 489.640625 Z M 140.355469 489.640625 "/>
<path style=" stroke:none;fill-rule:evenodd;fill:rgb(64.313725%,79.607843%,15.294118%);fill-opacity:1;" d="M 156.425781 512.136719 C 158.570312 512.136719 159.640625 511.066406 159.640625 508.925781 C 159.640625 507.851562 158.570312 506.78125 156.425781 506.78125 C 155.355469 506.78125 154.285156 507.851562 154.285156 508.925781 C 154.285156 511.066406 155.355469 512.136719 156.425781 512.136719 Z M 156.425781 512.136719 "/>
<path style=" stroke:none;fill-rule:evenodd;fill:rgb(0.392157%,56.862745%,27.058824%);fill-opacity:1;" d="M 181.070312 491.78125 C 182.140625 491.78125 184.285156 490.710938 184.285156 488.566406 C 184.285156 487.496094 182.140625 486.425781 181.070312 486.425781 C 178.925781 486.425781 177.855469 487.496094 177.855469 488.566406 C 177.855469 490.710938 178.925781 491.78125 181.070312 491.78125 Z M 181.070312 491.78125 "/>
<path style=" stroke:none;fill-rule:evenodd;fill:rgb(64.313725%,79.607843%,15.294118%);fill-opacity:1;" d="M 188.570312 532.496094 C 189.640625 532.496094 190.710938 531.425781 190.710938 530.351562 C 190.710938 528.210938 189.640625 527.136719 188.570312 527.136719 C 186.425781 527.136719 185.355469 528.210938 185.355469 530.351562 C 185.355469 531.425781 186.425781 532.496094 188.570312 532.496094 Z M 188.570312 532.496094 "/>
<path style=" stroke:none;fill-rule:evenodd;fill:rgb(64.313725%,79.607843%,15.294118%);fill-opacity:1;" d="M 214.285156 513.210938 C 216.425781 513.210938 217.5 512.136719 217.5 511.066406 C 217.5 508.925781 216.425781 507.851562 214.285156 507.851562 C 213.210938 507.851562 212.140625 508.925781 212.140625 511.066406 C 212.140625 512.136719 213.210938 513.210938 214.285156 513.210938 Z M 214.285156 513.210938 "/>
<path style=" stroke:none;fill-rule:evenodd;fill:rgb(0.392157%,56.862745%,27.058824%);fill-opacity:1;" d="M 227.140625 553.925781 C 229.285156 553.925781 230.355469 552.851562 230.355469 551.78125 C 230.355469 549.636719 229.285156 548.566406 227.140625 548.566406 C 226.070312 548.566406 225 549.636719 225 551.78125 C 225 552.851562 226.070312 553.925781 227.140625 553.925781 Z M 227.140625 553.925781 "/>
<path style=" stroke:none;fill-rule:evenodd;fill:rgb(0.392157%,56.862745%,27.058824%);fill-opacity:1;" d="M 248.570312 518.566406 C 250.710938 518.566406 251.785156 517.496094 251.785156 515.351562 C 251.785156 514.28125 250.710938 512.136719 248.570312 512.136719 C 247.496094 512.136719 246.425781 514.28125 246.425781 515.351562 C 246.425781 517.496094 247.496094 518.566406 248.570312 518.566406 Z M 248.570312 518.566406 "/>
<path style=" stroke:none;fill-rule:evenodd;fill:rgb(0.392157%,56.862745%,27.058824%);fill-opacity:1;" d="M 235.710938 490.710938 C 237.855469 490.710938 238.925781 489.640625 238.925781 488.566406 C 238.925781 486.425781 237.855469 485.351562 235.710938 485.351562 C 234.640625 485.351562 233.570312 486.425781 233.570312 488.566406 C 233.570312 489.640625 234.640625 490.710938 235.710938 490.710938 Z M 235.710938 490.710938 "/>
<path style=" stroke:none;fill-rule:evenodd;fill:rgb(0.392157%,56.862745%,27.058824%);fill-opacity:1;" d="M 286.070312 517.496094 C 288.210938 517.496094 289.285156 516.425781 289.285156 515.351562 C 289.285156 513.210938 288.210938 512.136719 286.070312 512.136719 C 284.996094 512.136719 282.855469 513.210938 282.855469 515.351562 C 282.855469 516.425781 284.996094 517.496094 286.070312 517.496094 Z M 286.070312 517.496094 "/>
<path style=" stroke:none;fill-rule:evenodd;fill:rgb(64.313725%,79.607843%,15.294118%);fill-opacity:1;" d="M 275.355469 493.925781 C 277.496094 493.925781 278.570312 492.851562 278.570312 491.78125 C 278.570312 489.640625 277.496094 488.566406 275.355469 488.566406 C 274.285156 488.566406 272.140625 489.640625 272.140625 491.78125 C 272.140625 492.851562 274.285156 493.925781 275.355469 493.925781 Z M 275.355469 493.925781 "/>
<path style=" stroke:none;fill-rule:evenodd;fill:rgb(0.392157%,56.862745%,27.058824%);fill-opacity:1;" d="M 279.640625 562.496094 C 281.785156 562.496094 282.855469 561.425781 282.855469 559.28125 C 282.855469 558.210938 281.785156 557.136719 279.640625 557.136719 C 278.570312 557.136719 276.425781 558.210938 276.425781 559.28125 C 276.425781 561.425781 278.570312 562.496094 279.640625 562.496094 Z M 279.640625 562.496094 "/>
<path style=" stroke:none;fill-rule:evenodd;fill:rgb(0.392157%,56.862745%,27.058824%);fill-opacity:1;" d="M 358.925781 565.710938 C 359.996094 565.710938 361.070312 563.566406 361.070312 562.496094 C 361.070312 560.351562 359.996094 559.28125 358.925781 559.28125 C 356.78125 559.28125 355.710938 560.351562 355.710938 562.496094 C 355.710938 563.566406 356.78125 565.710938 358.925781 565.710938 Z M 358.925781 565.710938 "/>
<path style=" stroke:none;fill-rule:evenodd;fill:rgb(0.392157%,56.862745%,27.058824%);fill-opacity:1;" d="M 328.925781 530.351562 C 331.070312 530.351562 332.140625 529.28125 332.140625 528.210938 C 332.140625 526.066406 331.070312 524.996094 328.925781 524.996094 C 327.855469 524.996094 325.710938 526.066406 325.710938 528.210938 C 325.710938 529.28125 327.855469 530.351562 328.925781 530.351562 Z M 328.925781 530.351562 "/>
<path style=" stroke:none;fill-rule:evenodd;fill:rgb(0.392157%,56.862745%,27.058824%);fill-opacity:1;" d="M 367.496094 489.640625 C 368.566406 489.640625 370.710938 487.496094 370.710938 486.425781 C 370.710938 484.28125 368.566406 483.210938 367.496094 483.210938 C 365.355469 483.210938 364.28125 484.28125 364.28125 486.425781 C 364.28125 487.496094 365.355469 489.640625 367.496094 489.640625 Z M 367.496094 489.640625 "/>
<path style=" stroke:none;fill-rule:evenodd;fill:rgb(0.392157%,56.862745%,27.058824%);fill-opacity:1;" d="M 389.996094 543.210938 C 392.140625 543.210938 393.210938 542.136719 393.210938 539.996094 C 393.210938 538.925781 392.140625 537.851562 389.996094 537.851562 C 388.925781 537.851562 387.855469 538.925781 387.855469 539.996094 C 387.855469 542.136719 388.925781 543.210938 389.996094 543.210938 Z M 389.996094 543.210938 "/>
<path style=" stroke:none;fill-rule:evenodd;fill:rgb(0.392157%,56.862745%,27.058824%);fill-opacity:1;" d="M 439.28125 506.78125 C 440.351562 506.78125 441.425781 505.710938 441.425781 504.636719 C 441.425781 502.496094 440.351562 501.425781 439.28125 501.425781 C 437.140625 501.425781 436.066406 502.496094 436.066406 504.636719 C 436.066406 505.710938 437.140625 506.78125 439.28125 506.78125 Z M 439.28125 506.78125 "/>
<path style=" stroke:none;fill-rule:evenodd;fill:rgb(0.392157%,56.862745%,27.058824%);fill-opacity:1;" d="M 486.425781 484.28125 C 488.566406 484.28125 489.640625 483.210938 489.640625 481.066406 C 489.640625 479.996094 488.566406 478.925781 486.425781 478.925781 C 485.351562 478.925781 484.28125 479.996094 484.28125 481.066406 C 484.28125 483.210938 485.351562 484.28125 486.425781 484.28125 Z M 486.425781 484.28125 "/>
<path style=" stroke:none;fill-rule:evenodd;fill:rgb(64.313725%,79.607843%,15.294118%);fill-opacity:1;" d="M 325.710938 501.425781 C 326.78125 501.425781 327.855469 499.28125 327.855469 498.210938 C 327.855469 496.066406 326.78125 494.996094 325.710938 494.996094 C 323.570312 494.996094 322.496094 496.066406 322.496094 498.210938 C 322.496094 499.28125 323.570312 501.425781 325.710938 501.425781 Z M 325.710938 501.425781 "/>
<path style=" stroke:none;fill-rule:evenodd;fill:rgb(64.313725%,79.607843%,15.294118%);fill-opacity:1;" d="M 313.925781 566.78125 C 316.070312 566.78125 317.140625 564.636719 317.140625 563.566406 C 317.140625 561.425781 316.070312 560.351562 313.925781 560.351562 C 312.855469 560.351562 311.78125 561.425781 311.78125 563.566406 C 311.78125 564.636719 312.855469 566.78125 313.925781 566.78125 Z M 313.925781 566.78125 "/>
<path style=" stroke:none;fill-rule:evenodd;fill:rgb(64.313725%,79.607843%,15.294118%);fill-opacity:1;" d="M 373.925781 524.996094 C 374.996094 524.996094 376.066406 523.925781 376.066406 521.78125 C 376.066406 520.710938 374.996094 519.636719 373.925781 519.636719 C 371.78125 519.636719 370.710938 520.710938 370.710938 521.78125 C 370.710938 523.925781 371.78125 524.996094 373.925781 524.996094 Z M 373.925781 524.996094 "/>
<path style=" stroke:none;fill-rule:evenodd;fill:rgb(64.313725%,79.607843%,15.294118%);fill-opacity:1;" d="M 408.210938 493.925781 C 410.355469 493.925781 411.425781 492.851562 411.425781 490.710938 C 411.425781 489.640625 410.355469 488.566406 408.210938 488.566406 C 407.140625 488.566406 404.996094 489.640625 404.996094 490.710938 C 404.996094 492.851562 407.140625 493.925781 408.210938 493.925781 Z M 408.210938 493.925781 "/>
<path style=" stroke:none;fill-rule:evenodd;fill:rgb(64.313725%,79.607843%,15.294118%);fill-opacity:1;" d="M 431.78125 539.996094 C 432.851562 539.996094 433.925781 538.925781 433.925781 537.851562 C 433.925781 535.710938 432.851562 534.636719 431.78125 534.636719 C 429.640625 534.636719 428.566406 535.710938 428.566406 537.851562 C 428.566406 538.925781 429.640625 539.996094 431.78125 539.996094 Z M 431.78125 539.996094 "/>
<path style=" stroke:none;fill-rule:evenodd;fill:rgb(64.313725%,79.607843%,15.294118%);fill-opacity:1;" d="M 487.496094 507.851562 C 489.640625 507.851562 490.710938 506.78125 490.710938 505.710938 C 490.710938 503.566406 489.640625 502.496094 487.496094 502.496094 C 486.425781 502.496094 485.351562 503.566406 485.351562 505.710938 C 485.351562 506.78125 486.425781 507.851562 487.496094 507.851562 Z M 487.496094 507.851562 "/>
<path style=" stroke:none;fill-rule:evenodd;fill:rgb(64.313725%,79.607843%,15.294118%);fill-opacity:1;" d="M 459.640625 487.496094 C 461.78125 487.496094 462.851562 486.425781 462.851562 485.351562 C 462.851562 483.210938 461.78125 482.140625 459.640625 482.140625 C 458.566406 482.140625 457.496094 483.210938 457.496094 485.351562 C 457.496094 486.425781 458.566406 487.496094 459.640625 487.496094 Z M 459.640625 487.496094 "/>
<path style=" stroke:none;fill-rule:evenodd;fill:rgb(64.313725%,79.607843%,15.294118%);fill-opacity:1;" d="M 296.785156 541.066406 C 298.925781 541.066406 299.996094 539.996094 299.996094 537.851562 C 299.996094 536.78125 298.925781 535.710938 296.785156 535.710938 C 295.710938 535.710938 294.640625 536.78125 294.640625 537.851562 C 294.640625 539.996094 295.710938 541.066406 296.785156 541.066406 Z M 296.785156 541.066406 "/>
<path style=" stroke:none;fill-rule:evenodd;fill:rgb(64.313725%,79.607843%,15.294118%);fill-opacity:1;" d="M 248.570312 538.925781 C 250.710938 538.925781 251.785156 537.851562 251.785156 535.710938 C 251.785156 534.636719 250.710938 533.566406 248.570312 533.566406 C 247.496094 533.566406 246.425781 534.636719 246.425781 535.710938 C 246.425781 537.851562 247.496094 538.925781 248.570312 538.925781 Z M 248.570312 538.925781 "/>
<path style=" stroke:none;fill-rule:evenodd;fill:rgb(99.607843%,99.607843%,99.607843%);fill-opacity:1;" d="M 250.710938 463.925781 L 376.066406 463.925781 L 376.066406 214.285156 L 250.710938 214.285156 Z M 250.710938 463.925781 "/>
<path style=" stroke:none;fill-rule:evenodd;fill:rgb(81.176471%,88.627451%,91.372549%);fill-opacity:1;" d="M 261.425781 452.140625 L 365.355469 452.140625 L 365.355469 226.070312 L 261.425781 226.070312 Z M 261.425781 452.140625 "/>
<path style=" stroke:none;fill-rule:evenodd;fill:rgb(86.27451%,14.509804%,16.862745%);fill-opacity:1;" d="M 302.140625 243.210938 L 324.640625 243.210938 L 324.640625 258.210938 L 339.640625 258.210938 L 339.640625 280.710938 L 324.640625 280.710938 L 324.640625 295.710938 L 302.140625 295.710938 L 302.140625 280.710938 L 287.140625 280.710938 L 287.140625 258.210938 L 302.140625 258.210938 Z M 302.140625 243.210938 "/>
<path style=" stroke:none;fill-rule:evenodd;fill:rgb(9.019608%,63.921569%,87.058824%);fill-opacity:1;" d="M 281.785156 463.925781 L 344.996094 463.925781 L 344.996094 354.640625 L 281.785156 354.640625 Z M 281.785156 463.925781 "/>
<path style=" stroke:none;fill-rule:evenodd;fill:rgb(81.176471%,88.627451%,91.372549%);fill-opacity:1;" d="M 272.140625 457.496094 L 355.710938 457.496094 L 355.710938 451.066406 L 272.140625 451.066406 Z M 272.140625 457.496094 "/>
<path style=" stroke:none;fill-rule:evenodd;fill:rgb(9.019608%,63.921569%,87.058824%);fill-opacity:1;" d="M 272.140625 464.996094 L 355.710938 464.996094 L 355.710938 457.496094 L 272.140625 457.496094 Z M 272.140625 464.996094 "/>
<path style=" stroke:none;fill-rule:evenodd;fill:rgb(81.176471%,88.627451%,91.372549%);fill-opacity:1;" d="M 272.140625 472.496094 L 355.710938 472.496094 L 355.710938 464.996094 L 272.140625 464.996094 Z M 272.140625 472.496094 "/>
<path style=" stroke:none;fill-rule:evenodd;fill:rgb(81.176471%,88.627451%,91.372549%);fill-opacity:1;" d="M 159.640625 463.925781 L 250.710938 463.925781 L 250.710938 249.640625 L 159.640625 249.640625 Z M 159.640625 463.925781 "/>
<path style=" stroke:none;fill-rule:evenodd;fill:rgb(99.607843%,99.607843%,99.607843%);fill-opacity:1;" d="M 159.640625 295.710938 L 250.710938 295.710938 L 250.710938 264.640625 L 159.640625 264.640625 Z M 159.640625 295.710938 "/>
<path style=" stroke:none;fill-rule:evenodd;fill:rgb(9.019608%,63.921569%,87.058824%);fill-opacity:1;" d="M 171.425781 350.355469 L 187.5 350.355469 L 187.5 307.496094 L 171.425781 307.496094 Z M 171.425781 350.355469 "/>
<path style=" stroke:none;fill-rule:evenodd;fill:rgb(9.019608%,63.921569%,87.058824%);fill-opacity:1;" d="M 198.210938 350.355469 L 214.285156 350.355469 L 214.285156 307.496094 L 198.210938 307.496094 Z M 198.210938 350.355469 "/>
<path style=" stroke:none;fill-rule:evenodd;fill:rgb(9.019608%,63.921569%,87.058824%);fill-opacity:1;" d="M 225 350.355469 L 241.070312 350.355469 L 241.070312 307.496094 L 225 307.496094 Z M 225 350.355469 "/>
<path style=" stroke:none;fill-rule:evenodd;fill:rgb(9.019608%,63.921569%,87.058824%);fill-opacity:1;" d="M 171.425781 409.28125 L 187.5 409.28125 L 187.5 366.425781 L 171.425781 366.425781 Z M 171.425781 409.28125 "/>
<path style=" stroke:none;fill-rule:evenodd;fill:rgb(9.019608%,63.921569%,87.058824%);fill-opacity:1;" d="M 198.210938 409.28125 L 214.285156 409.28125 L 214.285156 366.425781 L 198.210938 366.425781 Z M 198.210938 409.28125 "/>
<path style=" stroke:none;fill-rule:evenodd;fill:rgb(9.019608%,63.921569%,87.058824%);fill-opacity:1;" d="M 225 409.28125 L 241.070312 409.28125 L 241.070312 366.425781 L 225 366.425781 Z M 225 409.28125 "/>
<path style=" stroke:none;fill-rule:evenodd;fill:rgb(99.607843%,99.607843%,99.607843%);fill-opacity:1;" d="M 159.640625 452.140625 L 250.710938 452.140625 L 250.710938 421.066406 L 159.640625 421.066406 Z M 159.640625 452.140625 "/>
<path style=" stroke:none;fill-rule:evenodd;fill:rgb(81.176471%,88.627451%,91.372549%);fill-opacity:1;" d="M 377.140625 463.925781 L 468.210938 463.925781 L 468.210938 249.640625 L 377.140625 249.640625 Z M 377.140625 463.925781 "/>
<path style=" stroke:none;fill-rule:evenodd;fill:rgb(99.607843%,99.607843%,99.607843%);fill-opacity:1;" d="M 377.140625 295.710938 L 468.210938 295.710938 L 468.210938 264.640625 L 377.140625 264.640625 Z M 377.140625 295.710938 "/>
<path style=" stroke:none;fill-rule:evenodd;fill:rgb(9.019608%,63.921569%,87.058824%);fill-opacity:1;" d="M 439.28125 350.355469 L 456.425781 350.355469 L 456.425781 307.496094 L 439.28125 307.496094 Z M 439.28125 350.355469 "/>
<path style=" stroke:none;fill-rule:evenodd;fill:rgb(9.019608%,63.921569%,87.058824%);fill-opacity:1;" d="M 412.496094 350.355469 L 429.640625 350.355469 L 429.640625 307.496094 L 412.496094 307.496094 Z M 412.496094 350.355469 "/>
<path style=" stroke:none;fill-rule:evenodd;fill:rgb(9.019608%,63.921569%,87.058824%);fill-opacity:1;" d="M 385.710938 350.355469 L 402.855469 350.355469 L 402.855469 307.496094 L 385.710938 307.496094 Z M 385.710938 350.355469 "/>
<path style=" stroke:none;fill-rule:evenodd;fill:rgb(9.019608%,63.921569%,87.058824%);fill-opacity:1;" d="M 439.28125 409.28125 L 456.425781 409.28125 L 456.425781 366.425781 L 439.28125 366.425781 Z M 439.28125 409.28125 "/>
<path style=" stroke:none;fill-rule:evenodd;fill:rgb(9.019608%,63.921569%,87.058824%);fill-opacity:1;" d="M 412.496094 409.28125 L 429.640625 409.28125 L 429.640625 366.425781 L 412.496094 366.425781 Z M 412.496094 409.28125 "/>
<path style=" stroke:none;fill-rule:evenodd;fill:rgb(9.019608%,63.921569%,87.058824%);fill-opacity:1;" d="M 385.710938 409.28125 L 402.855469 409.28125 L 402.855469 366.425781 L 385.710938 366.425781 Z M 385.710938 409.28125 "/>
<path style=" stroke:none;fill-rule:evenodd;fill:rgb(99.607843%,99.607843%,99.607843%);fill-opacity:1;" d="M 377.140625 452.140625 L 468.210938 452.140625 L 468.210938 421.066406 L 377.140625 421.066406 Z M 377.140625 452.140625 "/>
<path style=" stroke:none;fill-rule:evenodd;fill:rgb(24.313725%,22.745098%,22.745098%);fill-opacity:1;" d="M 238.925781 361.070312 L 387.855469 361.070312 L 387.855469 339.640625 L 238.925781 339.640625 Z M 238.925781 361.070312 "/>
<path style=" stroke:none;fill-rule:evenodd;fill:rgb(89.803922%,95.686275%,98.431373%);fill-opacity:1;" d="M 332.140625 145.714844 C 325.710938 145.714844 319.28125 140.355469 319.28125 132.855469 C 319.28125 125.355469 324.640625 120 331.070312 118.925781 C 331.070312 118.925781 331.070312 117.855469 331.070312 117.855469 C 331.070312 111.425781 335.355469 107.140625 340.710938 107.140625 C 342.855469 107.140625 343.925781 107.140625 344.996094 108.214844 C 347.140625 99.640625 355.710938 93.214844 365.355469 93.214844 C 376.066406 93.214844 385.710938 101.785156 385.710938 112.5 C 395.355469 113.570312 402.855469 121.070312 402.855469 129.640625 C 402.855469 138.214844 397.496094 144.640625 389.996094 146.785156 L 378.210938 146.785156 Z M 332.140625 145.714844 "/>
</g>
</svg>
