<?xml version="1.0" encoding="UTF-8"?>
<svg xmlns="http://www.w3.org/2000/svg" xmlns:xlink="http://www.w3.org/1999/xlink" width="637pt" height="628pt" viewBox="0 0 637 628" version="1.1">
<g id="surface1">
<path style="fill-rule:evenodd;fill:rgb(42.352941%,38.823529%,100%);fill-opacity:1;stroke-width:2.002;stroke-linecap:butt;stroke-linejoin:miter;stroke:rgb(42.352941%,38.823529%,100%);stroke-opacity:1;stroke-miterlimit:4;" d="M 614.999473 308.000266 C 614.999473 477.552441 477.553156 615.000039 307.99854 615.000039 C 138.447776 615.000039 1.001458 477.552441 1.001458 308.000266 C 1.001458 138.448091 138.447776 1.000493 307.99854 1.000493 C 477.553156 1.000493 614.999473 138.448091 614.999473 308.000266 Z M 614.999473 308.000266 " transform="matrix(1.014146,0,0,1.015359,0,0.152109)"/>
<path style=" stroke:none;fill-rule:nonzero;fill:rgb(58.823529%,72.941176%,88.627451%);fill-opacity:1;" d="M 309.316406 557.582031 C 302.214844 557.582031 295.117188 557.582031 288.015625 556.570312 C 293.089844 548.445312 299.171875 540.324219 304.242188 532.199219 C 304.242188 533.214844 305.257812 533.214844 305.257812 533.214844 C 305.257812 533.214844 305.257812 533.214844 306.273438 533.214844 C 306.273438 533.214844 307.285156 532.199219 307.285156 532.199219 C 310.328125 528.136719 312.355469 524.078125 313.371094 520.015625 C 318.441406 517.984375 322.5 512.90625 326.554688 508.847656 C 327.570312 508.847656 327.570312 507.832031 328.582031 506.816406 C 330.613281 504.785156 333.652344 501.738281 335.683594 499.707031 C 333.652344 501.738281 332.640625 504.785156 333.652344 507.832031 C 333.652344 510.878906 335.683594 512.90625 337.710938 514.9375 C 337.710938 515.953125 337.710938 516.96875 337.710938 516.96875 C 337.710938 519 338.726562 522.046875 339.738281 522.046875 C 340.753906 523.0625 341.765625 523.0625 341.765625 523.0625 C 342.78125 523.0625 342.78125 523.0625 343.796875 522.046875 C 345.824219 522.046875 346.839844 521.03125 348.867188 520.015625 C 349.878906 523.0625 349.878906 527.125 350.894531 530.167969 C 350.894531 531.183594 351.910156 531.183594 351.910156 531.183594 C 352.921875 531.183594 354.949219 530.167969 354.949219 529.152344 C 355.964844 528.136719 355.964844 526.109375 355.964844 525.09375 C 355.964844 523.0625 355.964844 521.03125 354.949219 519 C 353.9375 516.96875 352.921875 515.953125 350.894531 515.953125 C 350.894531 513.921875 352.921875 512.90625 353.9375 511.894531 C 355.964844 509.863281 354.949219 505.800781 352.921875 504.785156 C 354.949219 503.769531 356.980469 501.738281 357.992188 498.691406 C 357.992188 496.664062 356.980469 493.617188 355.964844 491.585938 C 360.023438 489.554688 361.035156 483.460938 359.007812 479.402344 C 360.023438 478.386719 362.050781 477.371094 363.0625 476.355469 C 363.0625 477.371094 363.0625 478.386719 363.0625 480.417969 C 363.0625 485.492188 366.105469 488.539062 368.136719 488.539062 C 370.164062 488.539062 372.191406 485.492188 373.207031 480.417969 C 373.207031 478.386719 374.21875 477.371094 374.21875 475.339844 C 374.21875 475.339844 374.21875 474.324219 374.21875 474.324219 C 375.234375 474.324219 376.25 474.324219 377.261719 473.308594 C 378.277344 473.308594 379.289062 472.292969 380.304688 472.292969 C 381.320312 472.292969 381.320312 472.292969 382.332031 472.292969 C 384.359375 472.292969 385.375 472.292969 387.402344 472.292969 C 387.402344 472.292969 388.417969 472.292969 388.417969 472.292969 C 390.445312 472.292969 392.472656 472.292969 393.488281 471.277344 C 394.503906 469.246094 394.503906 467.21875 394.503906 465.1875 C 393.488281 462.140625 392.472656 462.140625 391.460938 462.140625 C 390.445312 462.140625 389.433594 462.140625 389.433594 462.140625 C 396.53125 459.09375 403.628906 457.0625 405.660156 457.0625 C 407.6875 456.046875 409.714844 456.046875 411.742188 455.03125 L 412.757812 454.015625 C 413.773438 454.015625 413.773438 454.015625 414.785156 453.003906 L 459.40625 432.695312 C 459.40625 432.695312 468.535156 426.601562 477.664062 418.480469 L 478.675781 420.511719 L 484.761719 422.542969 L 490.847656 423.554688 L 494.902344 422.542969 L 496.929688 421.527344 L 495.917969 404.265625 C 499.972656 401.21875 503.015625 398.171875 503.015625 396.140625 C 504.03125 396.140625 504.03125 395.125 504.03125 394.109375 L 533.441406 398.171875 L 537.496094 391.066406 L 540.539062 382.941406 L 515.1875 367.710938 C 517.214844 361.621094 518.230469 357.558594 518.230469 357.558594 L 506.058594 350.449219 L 499.972656 358.574219 L 495.917969 356.542969 C 497.945312 354.511719 498.960938 352.480469 500.988281 350.449219 C 502.003906 350.449219 503.015625 349.433594 503.015625 349.433594 C 504.03125 349.433594 504.03125 349.433594 504.03125 349.433594 C 504.03125 349.433594 504.03125 349.433594 505.042969 349.433594 C 507.074219 348.421875 509.101562 347.40625 511.128906 346.390625 C 512.144531 347.40625 511.128906 349.433594 512.144531 350.449219 C 512.144531 352.480469 514.171875 353.496094 515.1875 353.496094 C 515.1875 353.496094 516.199219 353.496094 516.199219 353.496094 C 517.214844 353.496094 519.242188 352.480469 519.242188 351.464844 C 519.242188 351.464844 519.242188 352.480469 519.242188 353.496094 C 521.269531 353.496094 522.285156 353.496094 523.300781 353.496094 C 523.300781 353.496094 524.3125 353.496094 524.3125 353.496094 C 526.339844 353.496094 527.355469 352.480469 527.355469 350.449219 C 528.371094 352.480469 530.398438 353.496094 533.441406 353.496094 C 533.441406 353.496094 534.453125 353.496094 535.46875 353.496094 C 536.484375 352.480469 537.496094 351.464844 538.511719 351.464844 C 538.511719 351.464844 539.527344 351.464844 539.527344 351.464844 C 541.554688 351.464844 542.566406 352.480469 544.597656 353.496094 C 545.609375 353.496094 545.609375 353.496094 545.609375 353.496094 C 547.640625 353.496094 549.667969 351.464844 550.679688 349.433594 C 550.679688 348.421875 551.695312 348.421875 551.695312 347.40625 C 557.78125 346.390625 564.878906 343.34375 564.878906 343.34375 C 564.878906 343.34375 565.894531 343.34375 565.894531 342.328125 C 567.921875 339.28125 572.992188 332.175781 570.964844 331.160156 C 569.949219 331.160156 543.582031 319.988281 525.328125 312.882812 C 536.484375 294.605469 551.695312 270.238281 551.695312 270.238281 C 551.695312 270.238281 552.710938 269.222656 552.710938 268.207031 C 553.722656 266.175781 553.722656 262.113281 553.722656 258.054688 C 553.722656 251.960938 552.710938 245.867188 545.609375 244.855469 C 547.640625 237.746094 549.667969 231.652344 549.667969 228.609375 C 549.667969 221.5 542.566406 215.40625 538.511719 215.40625 C 534.453125 216.421875 519.242188 245.867188 519.242188 245.867188 L 508.085938 257.039062 L 485.777344 251.960938 C 502.003906 230.636719 528.371094 192.054688 531.414062 186.976562 C 532.425781 184.949219 532.425781 183.933594 532.425781 181.902344 C 532.425781 174.792969 526.339844 166.671875 522.285156 165.65625 C 515.1875 165.65625 458.394531 224.546875 448.253906 232.667969 C 446.222656 233.683594 441.152344 236.730469 435.070312 241.808594 C 421.882812 241.808594 390.445312 240.792969 372.191406 238.761719 C 382.332031 218.453125 394.503906 192.054688 394.503906 192.054688 C 394.503906 192.054688 382.332031 174.792969 376.25 174.792969 C 376.25 174.792969 375.234375 174.792969 375.234375 174.792969 C 372.191406 175.808594 357.992188 180.886719 340.753906 197.132812 C 339.738281 194.085938 339.738281 189.007812 339.738281 181.902344 C 343.796875 173.777344 351.910156 158.546875 355.964844 151.441406 C 355.964844 150.425781 355.964844 150.425781 356.980469 149.410156 C 387.402344 149.410156 418.84375 145.347656 451.296875 130.117188 C 463.464844 125.042969 475.632812 121.996094 486.789062 121.996094 C 549.667969 121.996094 587.191406 199.164062 598.347656 231.652344 C 611.53125 270.238281 553.722656 505.800781 406.671875 544.382812 C 374.21875 553.523438 340.753906 557.582031 309.316406 557.582031 Z M 144.007812 513.921875 C 105.472656 490.570312 73.019531 458.078125 49.691406 418.480469 C 39.550781 402.234375 33.46875 385.988281 28.394531 370.757812 C 56.792969 371.773438 107.5 374.820312 112.570312 375.835938 C 119.667969 377.867188 169.363281 409.339844 169.363281 409.339844 L 207.898438 416.449219 L 209.929688 432.695312 C 199.785156 449.957031 159.222656 496.664062 144.007812 513.921875 Z M 458.394531 391.066406 L 458.394531 390.050781 L 459.40625 390.050781 Z M 463.464844 292.574219 L 452.308594 289.527344 C 456.367188 285.46875 459.40625 282.421875 462.449219 279.375 L 478.675781 281.40625 Z M 127.78125 246.882812 C 110.542969 246.882812 61.863281 237.746094 35.496094 232.667969 C 45.636719 203.222656 56.792969 184.949219 56.792969 184.949219 C 76.0625 146.363281 130.824219 133.164062 186.601562 133.164062 C 198.773438 133.164062 209.929688 133.164062 221.082031 134.179688 C 247.453125 136.210938 275.847656 142.300781 306.273438 146.363281 C 306.273438 149.410156 306.273438 152.457031 306.273438 155.503906 C 282.945312 165.65625 256.578125 176.824219 252.523438 177.839844 C 244.410156 177.839844 195.730469 196.117188 189.644531 200.179688 C 184.574219 204.238281 138.9375 239.777344 133.867188 245.867188 C 132.851562 246.882812 130.824219 246.882812 127.78125 246.882812 Z M 127.78125 246.882812 "/>
<path style=" stroke:none;fill-rule:nonzero;fill:rgb(96.470588%,72.156863%,51.372549%);fill-opacity:1;" d="M 16.226562 228.609375 C 16.226562 228.609375 127.78125 251.960938 133.867188 245.867188 C 138.9375 239.777344 184.574219 204.238281 189.644531 200.179688 C 195.730469 196.117188 244.410156 177.839844 252.523438 177.839844 C 260.636719 176.824219 342.78125 137.226562 347.851562 137.226562 C 352.921875 136.210938 359.007812 146.363281 359.007812 146.363281 C 359.007812 146.363281 338.726562 182.917969 336.695312 187.992188 C 333.652344 193.070312 305.257812 214.394531 305.257812 214.394531 L 271.792969 229.625 L 350.894531 236.730469 L 386.390625 300.699219 L 252.523438 405.28125 L 268.75 427.617188 L 169.363281 409.339844 C 169.363281 409.339844 119.667969 377.867188 112.570312 375.835938 C 106.484375 374.820312 11.15625 369.742188 11.15625 369.742188 C 11.15625 369.742188 -12.167969 333.191406 16.226562 228.609375 Z M 16.226562 228.609375 "/>
<path style=" stroke:none;fill-rule:nonzero;fill:rgb(98.039216%,84.313725%,75.294118%);fill-opacity:1;" d="M 315.398438 150.425781 C 317.425781 153.472656 320.46875 155.503906 326.554688 155.503906 C 336.695312 153.472656 349.878906 144.332031 349.878906 142.300781 C 350.894531 141.285156 349.878906 139.257812 349.878906 137.226562 C 348.867188 137.226562 348.867188 137.226562 347.851562 137.226562 C 345.824219 137.226562 331.625 143.316406 315.398438 150.425781 Z M 315.398438 150.425781 "/>
<path style=" stroke:none;fill-rule:nonzero;fill:rgb(94.509804%,58.431373%,35.294118%);fill-opacity:1;" d="M 207.898438 416.449219 L 169.363281 409.339844 C 169.363281 409.339844 119.667969 377.867188 112.570312 375.835938 C 106.484375 374.820312 11.15625 369.742188 11.15625 369.742188 L 11.15625 368.726562 L 10.140625 367.710938 L 10.140625 366.695312 L 9.128906 365.679688 L 9.128906 363.652344 L 8.113281 362.636719 C 8.113281 362.636719 8.113281 362.636719 8.113281 361.621094 L 8.113281 360.605469 C 8.113281 360.605469 7.097656 360.605469 7.097656 360.605469 L 7.097656 359.589844 Z M 7.097656 357.558594 C 6.085938 357.558594 6.085938 356.542969 6.085938 356.542969 C 6.085938 356.542969 6.085938 355.527344 6.085938 355.527344 C 6.085938 354.511719 6.085938 354.511719 6.085938 353.496094 C 5.070312 352.480469 5.070312 351.464844 5.070312 350.449219 C 5.070312 350.449219 5.070312 349.433594 5.070312 349.433594 C 5.070312 348.421875 4.054688 348.421875 4.054688 347.40625 C 4.054688 346.390625 4.054688 345.375 4.054688 344.359375 C 4.054688 343.34375 4.054688 343.34375 4.054688 342.328125 L 3.042969 342.328125 C 3.042969 341.3125 3.042969 341.3125 3.042969 340.296875 C 3.042969 339.28125 3.042969 339.28125 3.042969 338.265625 C 3.042969 337.25 3.042969 337.25 3.042969 336.234375 C 3.042969 335.21875 3.042969 334.203125 3.042969 334.203125 L 3.042969 333.191406 C 3.042969 333.191406 3.042969 332.175781 2.027344 332.175781 L 2.027344 331.160156 C 2.027344 330.144531 2.027344 329.128906 2.027344 328.113281 C 16.226562 333.191406 31.4375 336.234375 47.664062 336.234375 C 55.777344 336.234375 63.890625 335.21875 72.003906 333.191406 C 90.257812 330.144531 106.484375 322.019531 124.738281 318.976562 C 128.796875 318.976562 132.851562 317.960938 135.894531 316.945312 C 139.953125 314.914062 141.980469 310.851562 147.050781 308.820312 C 148.066406 308.820312 150.09375 307.804688 152.121094 307.804688 C 158.207031 307.804688 164.292969 311.867188 168.347656 316.945312 C 172.40625 324.050781 175.445312 332.175781 179.503906 339.28125 C 183.558594 345.375 190.660156 351.464844 197.757812 351.464844 C 197.757812 351.464844 198.773438 351.464844 198.773438 351.464844 C 203.84375 351.464844 207.898438 348.421875 210.941406 344.359375 C 204.859375 334.203125 203.84375 319.988281 210.941406 309.835938 C 213.984375 305.773438 218.042969 303.746094 223.113281 300.699219 C 233.253906 294.605469 243.394531 287.5 250.492188 277.34375 C 253.535156 273.285156 255.566406 268.207031 257.59375 263.128906 C 260.636719 259.070312 264.691406 255.007812 269.761719 253.992188 C 269.761719 252.976562 269.761719 252.976562 269.761719 251.960938 C 269.761719 250.945312 269.761719 249.929688 269.761719 248.914062 C 271.792969 248.914062 273.820312 249.929688 275.847656 249.929688 C 276.863281 249.929688 276.863281 249.929688 276.863281 249.929688 C 275.847656 249.929688 274.832031 251.960938 273.820312 253.992188 C 273.820312 256.023438 273.820312 258.054688 272.804688 260.082031 C 270.777344 264.144531 263.679688 265.160156 263.679688 269.222656 C 263.679688 271.253906 264.691406 272.269531 263.679688 274.300781 C 263.679688 275.3125 261.648438 275.3125 260.636719 276.328125 C 256.578125 279.375 254.550781 284.453125 255.566406 289.527344 C 255.566406 290.542969 256.578125 291.558594 255.566406 292.574219 C 255.566406 293.589844 254.550781 294.605469 253.535156 294.605469 C 249.480469 297.652344 248.464844 302.730469 250.492188 306.789062 C 247.453125 306.789062 245.421875 308.820312 245.421875 310.851562 C 244.410156 312.882812 244.410156 314.914062 244.410156 316.945312 C 244.410156 317.960938 244.410156 318.976562 244.410156 319.988281 C 243.394531 322.019531 242.382812 324.050781 240.351562 326.082031 C 238.324219 327.097656 236.296875 328.113281 233.253906 328.113281 C 229.195312 330.144531 224.125 335.21875 223.113281 340.296875 C 212.96875 377.867188 208.914062 376.851562 206.886719 398.171875 C 206.886719 403.25 210.941406 401.21875 208.914062 408.328125 C 207.898438 410.355469 207.898438 413.402344 207.898438 415.433594 L 207.898438 416.449219 Z M 340.753906 180.886719 L 339.738281 181.902344 C 338.726562 175.808594 338.726562 167.6875 337.710938 157.53125 C 338.726562 157.53125 338.726562 156.515625 339.738281 156.515625 C 342.78125 153.472656 347.851562 150.425781 352.921875 150.425781 C 353.9375 150.425781 354.949219 151.441406 355.964844 151.441406 L 353.9375 155.503906 L 352.921875 156.515625 L 352.921875 157.53125 L 351.910156 158.546875 L 351.910156 159.5625 L 350.894531 159.5625 L 348.867188 164.640625 L 348.867188 165.65625 L 347.851562 166.671875 L 347.851562 167.6875 L 346.839844 167.6875 L 346.839844 168.703125 L 345.824219 169.71875 L 345.824219 170.730469 L 344.808594 171.746094 L 344.808594 172.761719 L 343.796875 173.777344 L 343.796875 174.792969 L 342.78125 175.808594 L 342.78125 176.824219 L 341.765625 176.824219 L 341.765625 178.855469 L 340.753906 178.855469 Z M 261.648438 237.746094 C 261.648438 237.746094 261.648438 236.730469 261.648438 236.730469 C 257.59375 234.699219 253.535156 233.683594 249.480469 231.652344 C 247.453125 231.652344 245.421875 229.625 244.410156 228.609375 C 242.382812 224.546875 244.410156 219.46875 247.453125 216.421875 C 251.507812 213.378906 256.578125 212.363281 260.636719 211.347656 C 271.792969 208.300781 281.933594 204.238281 292.074219 198.148438 C 296.128906 195.101562 301.203125 192.054688 305.257812 189.007812 C 305.257812 192.054688 305.257812 196.117188 305.257812 200.179688 C 299.171875 204.238281 293.089844 208.300781 292.074219 215.40625 C 291.058594 215.40625 291.058594 215.40625 291.058594 215.40625 C 284.976562 215.40625 279.902344 218.453125 276.863281 223.53125 C 275.847656 224.546875 275.847656 226.578125 273.820312 226.578125 C 273.820312 226.578125 273.820312 226.578125 272.804688 226.578125 C 272.804688 226.578125 271.792969 226.578125 271.792969 226.578125 C 271.792969 226.578125 271.792969 226.578125 270.777344 226.578125 C 267.734375 226.578125 264.691406 228.609375 262.664062 232.667969 C 262.664062 233.683594 261.648438 235.714844 261.648438 237.746094 Z M 261.648438 237.746094 "/>
<path style=" stroke:none;fill-rule:nonzero;fill:rgb(93.333333%,48.627451%,25.882353%);fill-opacity:1;" d="M 338.726562 306.789062 C 338.726562 306.789062 339.738281 304.757812 340.753906 302.730469 C 341.765625 299.683594 343.796875 294.605469 345.824219 290.542969 L 357.992188 286.484375 L 363.0625 286.484375 C 363.0625 287.5 362.050781 287.5 361.035156 288.515625 C 359.007812 290.542969 354.949219 293.589844 352.921875 297.652344 Z M 367.121094 287.5 C 367.121094 287.5 366.105469 286.484375 365.09375 286.484375 L 368.136719 286.484375 Z M 367.121094 287.5 "/>
<path style=" stroke:none;fill-rule:nonzero;fill:rgb(99.607843%,99.607843%,99.607843%);fill-opacity:1;" d="M 330.613281 231.652344 C 321.484375 237.746094 315.398438 247.898438 315.398438 259.070312 C 315.398438 260.082031 315.398438 262.113281 314.386719 263.128906 C 313.371094 266.175781 309.316406 267.191406 306.273438 267.191406 C 305.257812 268.207031 304.242188 268.207031 303.230469 268.207031 C 302.214844 267.191406 301.203125 266.175781 301.203125 265.160156 C 300.1875 268.207031 296.128906 270.238281 293.089844 271.253906 C 292.074219 271.253906 291.058594 272.269531 291.058594 272.269531 C 290.046875 273.285156 290.046875 274.300781 290.046875 275.3125 C 291.058594 278.359375 291.058594 282.421875 289.03125 285.46875 C 287.003906 287.5 282.945312 288.515625 279.902344 289.527344 C 276.863281 291.558594 273.820312 294.605469 270.777344 298.667969 C 263.679688 306.789062 258.605469 316.945312 254.550781 328.113281 C 253.535156 330.144531 251.507812 334.203125 249.480469 333.191406 C 246.4375 333.191406 245.421875 330.144531 245.421875 328.113281 C 244.410156 324.050781 244.410156 321.003906 244.410156 316.945312 C 244.410156 314.914062 244.410156 312.882812 245.421875 310.851562 C 246.4375 308.820312 248.464844 306.789062 250.492188 306.789062 C 248.464844 302.730469 249.480469 297.652344 253.535156 294.605469 C 254.550781 294.605469 255.566406 293.589844 255.566406 292.574219 C 256.578125 291.558594 255.566406 290.542969 255.566406 289.527344 C 254.550781 284.453125 256.578125 279.375 260.636719 276.328125 C 261.648438 275.3125 263.679688 275.3125 263.679688 274.300781 C 264.691406 272.269531 263.679688 271.253906 263.679688 269.222656 C 263.679688 265.160156 270.777344 264.144531 272.804688 260.082031 C 273.820312 258.054688 273.820312 256.023438 273.820312 253.992188 C 274.832031 251.960938 275.847656 249.929688 276.863281 249.929688 C 271.792969 249.929688 266.71875 247.898438 263.679688 242.824219 C 261.648438 239.777344 261.648438 235.714844 262.664062 232.667969 C 264.691406 228.609375 267.734375 226.578125 271.792969 226.578125 C 272.804688 226.578125 273.820312 226.578125 273.820312 226.578125 C 275.847656 226.578125 275.847656 224.546875 276.863281 223.53125 C 279.902344 218.453125 285.988281 215.40625 292.074219 215.40625 C 294.101562 206.269531 303.230469 201.191406 310.328125 198.148438 C 312.355469 197.132812 313.371094 196.117188 315.398438 197.132812 C 315.398438 198.148438 316.414062 198.148438 316.414062 199.164062 C 316.414062 201.191406 315.398438 203.222656 314.386719 205.253906 C 313.371094 207.285156 311.34375 209.316406 311.34375 211.347656 C 311.34375 215.40625 314.386719 214.394531 317.425781 213.378906 C 320.46875 212.363281 323.511719 211.347656 324.527344 213.378906 C 325.539062 215.40625 327.570312 234.699219 330.613281 231.652344 Z M 330.613281 231.652344 "/>
<path style=" stroke:none;fill-rule:nonzero;fill:rgb(49.803922%,80.392157%,90.980392%);fill-opacity:1;" d="M 313.371094 214.394531 C 312.355469 214.394531 311.34375 213.378906 311.34375 211.347656 C 311.34375 210.332031 312.355469 209.316406 312.355469 209.316406 C 320.46875 202.207031 334.667969 191.039062 336.695312 187.992188 C 336.695312 186.976562 337.710938 184.949219 339.738281 181.902344 C 339.738281 189.007812 339.738281 194.085938 340.753906 197.132812 C 335.683594 201.191406 329.597656 207.285156 324.527344 213.378906 C 323.511719 212.363281 322.5 212.363281 321.484375 212.363281 C 320.46875 212.363281 319.457031 212.363281 317.425781 213.378906 C 316.414062 213.378906 314.386719 214.394531 313.371094 214.394531 Z M 313.371094 214.394531 "/>
<path style=" stroke:none;fill-rule:nonzero;fill:rgb(49.803922%,80.392157%,90.980392%);fill-opacity:1;" d="M 306.273438 155.503906 C 306.273438 152.457031 306.273438 149.410156 306.273438 146.363281 C 311.34375 146.363281 316.414062 147.378906 321.484375 148.394531 C 317.425781 150.425781 311.34375 152.457031 306.273438 155.503906 Z M 306.273438 155.503906 "/>
<path style=" stroke:none;fill-rule:nonzero;fill:rgb(61.568627%,83.921569%,86.666667%);fill-opacity:1;" d="M 305.257812 189.007812 C 305.257812 184.949219 306.273438 181.902344 306.273438 179.871094 C 306.273438 179.871094 306.273438 170.730469 306.273438 155.503906 C 311.34375 152.457031 317.425781 150.425781 321.484375 148.394531 C 327.570312 145.347656 332.640625 143.316406 336.695312 141.285156 C 331.625 143.316406 323.511719 147.378906 315.398438 150.425781 C 317.425781 152.457031 319.457031 155.503906 324.527344 155.503906 C 324.527344 155.503906 325.539062 155.503906 326.554688 155.503906 C 329.597656 154.488281 333.652344 153.472656 337.710938 151.441406 C 337.710938 153.472656 337.710938 155.503906 337.710938 157.53125 C 334.667969 161.59375 330.613281 165.65625 327.570312 169.71875 C 322.5 174.792969 317.425781 179.871094 312.355469 183.933594 C 309.316406 184.949219 307.285156 186.976562 305.257812 189.007812 Z M 305.257812 189.007812 "/>
<path style=" stroke:none;fill-rule:nonzero;fill:rgb(60%,83.529412%,88.235294%);fill-opacity:1;" d="M 324.527344 155.503906 C 319.457031 155.503906 317.425781 152.457031 315.398438 150.425781 C 323.511719 147.378906 331.625 143.316406 336.695312 141.285156 C 337.710938 144.332031 337.710938 147.378906 337.710938 151.441406 C 333.652344 153.472656 329.597656 154.488281 326.554688 155.503906 C 325.539062 155.503906 324.527344 155.503906 324.527344 155.503906 Z M 324.527344 155.503906 "/>
<path style=" stroke:none;fill-rule:nonzero;fill:rgb(60.784314%,82.745098%,84.313725%);fill-opacity:1;" d="M 312.355469 209.316406 C 312.355469 207.285156 313.371094 206.269531 314.386719 205.253906 C 315.398438 203.222656 316.414062 201.191406 316.414062 199.164062 C 316.414062 198.148438 315.398438 198.148438 315.398438 197.132812 C 314.386719 197.132812 314.386719 197.132812 313.371094 197.132812 C 312.355469 197.132812 311.34375 197.132812 310.328125 198.148438 C 309.316406 198.148438 307.285156 199.164062 305.257812 200.179688 C 305.257812 196.117188 305.257812 192.054688 305.257812 189.007812 C 307.285156 186.976562 309.316406 184.949219 312.355469 183.933594 C 317.425781 179.871094 322.5 174.792969 327.570312 169.71875 C 330.613281 165.65625 334.667969 161.59375 337.710938 157.53125 C 338.726562 167.6875 338.726562 175.808594 339.738281 181.902344 C 337.710938 184.949219 336.695312 186.976562 336.695312 187.992188 C 334.667969 191.039062 320.46875 202.207031 312.355469 209.316406 Z M 312.355469 209.316406 "/>
<path style=" stroke:none;fill-rule:nonzero;fill:rgb(61.960784%,84.313725%,92.156863%);fill-opacity:1;" d="M 302.214844 243.839844 C 303.230469 230.636719 305.257812 217.4375 305.257812 215.40625 C 305.257812 214.394531 305.257812 207.285156 305.257812 200.179688 C 307.285156 199.164062 309.316406 198.148438 310.328125 198.148438 C 311.34375 197.132812 312.355469 197.132812 313.371094 197.132812 C 314.386719 197.132812 314.386719 197.132812 315.398438 197.132812 C 315.398438 198.148438 316.414062 198.148438 316.414062 199.164062 C 316.414062 201.191406 315.398438 203.222656 314.386719 205.253906 C 313.371094 206.269531 312.355469 207.285156 312.355469 209.316406 C 312.355469 209.316406 311.34375 210.332031 311.34375 211.347656 C 311.34375 213.378906 312.355469 214.394531 313.371094 214.394531 C 314.386719 214.394531 316.414062 213.378906 317.425781 213.378906 C 319.457031 212.363281 320.46875 212.363281 321.484375 212.363281 C 322.5 212.363281 323.511719 212.363281 324.527344 213.378906 C 318.441406 219.46875 313.371094 227.59375 307.285156 235.714844 C 306.273438 238.761719 304.242188 240.792969 302.214844 243.839844 Z M 302.214844 243.839844 "/>
<path style=" stroke:none;fill-rule:nonzero;fill:rgb(99.607843%,99.607843%,99.607843%);fill-opacity:1;" d="M 193.703125 396.140625 C 189.644531 395.125 183.558594 397.15625 183.558594 401.21875 C 183.558594 398.171875 184.574219 395.125 183.558594 392.082031 C 182.546875 389.035156 179.503906 387.003906 176.460938 388.019531 C 178.488281 383.957031 179.503906 378.878906 177.476562 375.835938 C 175.445312 371.773438 170.375 369.742188 167.335938 371.773438 C 166.320312 367.710938 162.261719 363.652344 158.207031 362.636719 C 154.148438 360.605469 149.078125 361.621094 145.023438 363.652344 C 141.980469 360.605469 137.925781 357.558594 132.851562 357.558594 C 130.824219 356.542969 128.796875 357.558594 127.78125 358.574219 C 125.753906 359.589844 124.738281 361.621094 125.753906 363.652344 C 124.738281 360.605469 120.683594 360.605469 118.65625 361.621094 C 116.625 363.652344 114.597656 365.679688 113.585938 368.726562 C 112.570312 369.742188 109.527344 370.757812 106.484375 369.742188 C 105.472656 369.742188 104.457031 368.726562 103.441406 369.742188 C 102.429688 370.757812 102.429688 371.773438 102.429688 371.773438 C 102.429688 377.867188 108.511719 380.910156 113.585938 383.957031 C 115.613281 384.972656 118.65625 385.988281 121.699219 385.988281 C 123.726562 385.988281 126.769531 383.957031 126.769531 380.910156 C 123.726562 383.957031 125.753906 390.050781 128.796875 392.082031 C 132.851562 394.109375 136.910156 393.097656 140.964844 393.097656 C 140.964844 400.203125 148.066406 406.296875 154.148438 406.296875 C 154.148438 410.355469 157.191406 415.433594 162.261719 416.449219 C 166.320312 418.480469 171.390625 417.464844 175.445312 416.449219 C 172.40625 418.480469 170.375 420.511719 168.347656 422.542969 C 167.335938 425.585938 167.335938 429.648438 169.363281 432.695312 C 171.390625 434.726562 176.460938 434.726562 177.476562 431.679688 C 177.476562 435.742188 177.476562 439.800781 177.476562 443.863281 C 177.476562 444.878906 177.476562 445.894531 178.488281 445.894531 C 179.503906 448.941406 183.558594 447.925781 184.574219 444.878906 C 185.589844 441.832031 183.558594 439.800781 182.546875 436.757812 C 183.558594 439.800781 187.617188 433.710938 187.617188 431.679688 C 202.828125 429.648438 211.957031 401.21875 193.703125 396.140625 Z M 193.703125 396.140625 "/>
<path style=" stroke:none;fill-rule:nonzero;fill:rgb(49.803922%,80.392157%,90.980392%);fill-opacity:1;" d="M 209.929688 432.695312 L 207.898438 416.449219 L 215 417.464844 C 212.96875 422.542969 211.957031 427.617188 209.929688 430.664062 C 209.929688 431.679688 209.929688 431.679688 209.929688 432.695312 Z M 209.929688 432.695312 "/>
<path style=" stroke:none;fill-rule:nonzero;fill:rgb(60.784314%,82.745098%,84.313725%);fill-opacity:1;" d="M 215 417.464844 L 207.898438 416.449219 L 207.898438 415.433594 C 207.898438 413.402344 207.898438 410.355469 208.914062 408.328125 C 210.941406 401.21875 206.886719 403.25 206.886719 398.171875 C 208.914062 376.851562 212.96875 377.867188 223.113281 340.296875 C 224.125 335.21875 229.195312 330.144531 233.253906 328.113281 C 236.296875 328.113281 238.324219 327.097656 240.351562 326.082031 C 226.15625 354.511719 221.082031 394.109375 215 417.464844 Z M 215 417.464844 "/>
<path style=" stroke:none;fill-rule:nonzero;fill:rgb(96.470588%,72.156863%,51.372549%);fill-opacity:1;" d="M 518.230469 357.558594 C 518.230469 357.558594 506.058594 391.066406 503.015625 396.140625 C 500.988281 402.234375 459.40625 432.695312 459.40625 432.695312 L 411.742188 455.03125 L 435.070312 398.171875 L 458.394531 391.066406 L 485.777344 374.820312 L 506.058594 350.449219 Z M 518.230469 357.558594 "/>
<path style=" stroke:none;fill-rule:nonzero;fill:rgb(94.509804%,58.431373%,35.294118%);fill-opacity:1;" d="M 411.742188 455.03125 C 411.742188 455.03125 412.757812 454.015625 412.757812 454.015625 Z M 414.785156 453.003906 C 425.941406 447.925781 440.140625 437.773438 447.238281 433.710938 C 452.308594 430.664062 455.351562 420.511719 456.367188 410.355469 C 458.394531 410.355469 459.40625 409.339844 461.4375 409.339844 C 461.4375 409.339844 462.449219 410.355469 463.464844 410.355469 C 462.449219 409.339844 462.449219 408.328125 462.449219 408.328125 C 462.449219 404.265625 459.40625 400.203125 458.394531 397.15625 C 458.394531 397.15625 458.394531 396.140625 458.394531 396.140625 C 459.40625 397.15625 460.421875 398.171875 462.449219 399.1875 C 464.480469 400.203125 466.507812 401.21875 467.519531 403.25 C 468.535156 404.265625 468.535156 405.28125 469.550781 406.296875 C 470.5625 410.355469 471.578125 414.417969 471.578125 418.480469 C 471.578125 420.511719 471.578125 421.527344 471.578125 423.554688 C 468.535156 425.585938 465.492188 427.617188 463.464844 429.648438 L 462.449219 429.648438 L 462.449219 430.664062 L 461.4375 430.664062 L 461.4375 431.679688 L 459.40625 431.679688 L 459.40625 432.695312 Z M 414.785156 453.003906 "/>
<path style=" stroke:none;fill-rule:nonzero;fill:rgb(94.509804%,58.431373%,35.294118%);fill-opacity:1;" d="M 495.917969 404.265625 L 493.890625 390.050781 L 503.015625 393.097656 L 504.03125 394.109375 L 504.03125 396.140625 L 503.015625 396.140625 C 503.015625 397.15625 503.015625 397.15625 503.015625 397.15625 Z M 503.015625 397.15625 C 503.015625 398.171875 503.015625 398.171875 502.003906 398.171875 C 502.003906 398.171875 502.003906 399.1875 502.003906 399.1875 L 500.988281 399.1875 L 500.988281 400.203125 L 499.972656 400.203125 L 499.972656 401.21875 L 498.960938 401.21875 L 498.960938 402.234375 L 497.945312 402.234375 L 497.945312 403.25 L 496.929688 403.25 L 496.929688 404.265625 L 495.917969 404.265625 Z M 506.058594 361.621094 L 505.042969 360.605469 L 499.972656 358.574219 L 502.003906 355.527344 C 503.015625 355.527344 504.03125 355.527344 504.03125 356.542969 C 506.058594 356.542969 506.058594 359.589844 506.058594 360.605469 C 506.058594 361.621094 506.058594 361.621094 506.058594 361.621094 Z M 506.058594 361.621094 "/>
<path style=" stroke:none;fill-rule:nonzero;fill:rgb(93.333333%,48.627451%,25.882353%);fill-opacity:1;" d="M 471.578125 423.554688 C 471.578125 421.527344 471.578125 420.511719 471.578125 418.480469 C 471.578125 414.417969 470.5625 410.355469 469.550781 406.296875 C 468.535156 405.28125 468.535156 404.265625 467.519531 403.25 C 466.507812 401.21875 464.480469 400.203125 462.449219 399.1875 C 460.421875 398.171875 459.40625 397.15625 458.394531 396.140625 C 458.394531 394.109375 458.394531 392.082031 458.394531 391.066406 L 459.40625 390.050781 L 470.5625 398.171875 L 477.664062 418.480469 L 476.648438 419.496094 C 474.621094 421.527344 473.605469 422.542969 471.578125 423.554688 Z M 471.578125 423.554688 "/>
<path style=" stroke:none;fill-rule:nonzero;fill:rgb(96.470588%,72.156863%,51.372549%);fill-opacity:1;" d="M 438.109375 384.972656 L 459.40625 390.050781 L 470.5625 398.171875 L 478.675781 420.511719 L 490.847656 423.554688 L 496.929688 421.527344 L 493.890625 383.957031 L 484.761719 374.820312 L 454.335938 361.621094 Z M 438.109375 384.972656 "/>
<path style=" stroke:none;fill-rule:nonzero;fill:rgb(98.039216%,84.313725%,75.294118%);fill-opacity:1;" d="M 495.917969 406.296875 C 492.875 406.296875 486.789062 405.28125 485.777344 409.339844 C 484.761719 415.433594 485.777344 421.527344 487.804688 421.527344 C 488.816406 421.527344 491.859375 422.542969 494.902344 422.542969 L 496.929688 421.527344 Z M 495.917969 406.296875 "/>
<path style=" stroke:none;fill-rule:nonzero;fill:rgb(94.509804%,58.431373%,35.294118%);fill-opacity:1;" d="M 470.5625 398.171875 L 459.40625 390.050781 L 458.394531 390.050781 L 458.394531 388.019531 C 460.421875 387.003906 462.449219 384.972656 464.480469 383.957031 C 467.519531 384.972656 470.5625 385.988281 474.621094 387.003906 C 477.664062 389.035156 481.71875 390.050781 484.761719 391.066406 C 487.804688 391.066406 490.847656 392.082031 493.890625 393.097656 L 494.902344 394.109375 C 491.859375 395.125 489.832031 395.125 487.804688 396.140625 C 483.746094 397.15625 482.734375 401.21875 482.734375 405.28125 C 482.734375 409.339844 483.746094 412.386719 484.761719 416.449219 C 484.761719 418.480469 484.761719 420.511719 484.761719 422.542969 L 478.675781 420.511719 Z M 470.5625 398.171875 "/>
<path style=" stroke:none;fill-rule:nonzero;fill:rgb(93.333333%,48.627451%,25.882353%);fill-opacity:1;" d="M 493.890625 393.097656 C 490.847656 392.082031 487.804688 391.066406 484.761719 391.066406 C 481.71875 390.050781 477.664062 389.035156 474.621094 387.003906 C 470.5625 385.988281 467.519531 384.972656 464.480469 383.957031 C 465.492188 382.941406 467.519531 381.925781 468.535156 379.894531 L 493.890625 390.050781 Z M 493.890625 393.097656 "/>
<path style=" stroke:none;fill-rule:nonzero;fill:rgb(96.470588%,72.156863%,51.372549%);fill-opacity:1;" d="M 441.152344 403.25 C 441.152344 403.25 480.707031 369.742188 483.746094 368.726562 C 487.804688 366.695312 510.117188 341.3125 516.199219 329.128906 C 522.285156 317.960938 551.695312 270.238281 551.695312 270.238281 C 551.695312 270.238281 560.824219 244.855469 543.582031 244.855469 L 520.257812 272.269531 L 470.5625 323.035156 L 454.335938 333.191406 Z M 441.152344 403.25 "/>
<path style=" stroke:none;fill-rule:nonzero;fill:rgb(93.333333%,48.627451%,25.882353%);fill-opacity:1;" d="M 476.648438 347.40625 L 467.519531 343.34375 L 480.707031 334.203125 C 480.707031 335.21875 480.707031 337.25 481.71875 338.265625 C 482.734375 338.265625 482.734375 339.28125 483.746094 340.296875 C 481.71875 342.328125 478.675781 345.375 476.648438 347.40625 Z M 547.640625 245.867188 Z M 546.625 245.867188 C 546.625 245.867188 546.625 245.867188 546.625 244.855469 C 545.609375 244.855469 545.609375 244.855469 545.609375 244.855469 C 545.609375 246.882812 544.597656 247.898438 544.597656 249.929688 C 544.597656 249.929688 544.597656 249.929688 545.609375 249.929688 C 545.609375 249.929688 546.625 249.929688 547.640625 249.929688 C 547.640625 248.914062 547.640625 246.882812 547.640625 245.867188 Z M 519.242188 310.851562 C 516.199219 308.820312 513.15625 307.804688 512.144531 307.804688 L 529.382812 282.421875 L 536.484375 282.421875 C 532.425781 292.574219 526.339844 301.714844 519.242188 310.851562 Z M 537.496094 281.40625 L 537.496094 276.328125 L 539.527344 266.175781 C 539.527344 265.160156 539.527344 265.160156 539.527344 264.144531 C 540.539062 264.144531 541.554688 265.160156 543.582031 265.160156 C 541.554688 271.253906 539.527344 276.328125 537.496094 281.40625 Z M 546.625 245.867188 Z M 546.625 245.867188 "/>
<path style=" stroke:none;fill-rule:nonzero;fill:rgb(98.039216%,84.313725%,75.294118%);fill-opacity:1;" d="M 539.527344 264.144531 C 539.527344 264.144531 548.652344 267.191406 552.710938 268.207031 C 553.722656 265.160156 554.738281 257.039062 553.722656 251.960938 C 550.679688 250.945312 544.597656 248.914062 543.582031 249.929688 C 543.582031 252.976562 539.527344 264.144531 539.527344 264.144531 Z M 539.527344 264.144531 "/>
<path style=" stroke:none;fill-rule:nonzero;fill:rgb(99.607843%,99.607843%,99.607843%);fill-opacity:1;" d="M 493.890625 342.328125 C 490.847656 344.359375 492.875 348.421875 494.902344 350.449219 C 497.945312 351.464844 500.988281 350.449219 504.03125 349.433594 C 504.03125 348.421875 503.015625 349.433594 503.015625 349.433594 C 504.03125 350.449219 504.03125 349.433594 505.042969 349.433594 C 507.074219 348.421875 509.101562 347.40625 511.128906 346.390625 C 512.144531 347.40625 511.128906 349.433594 512.144531 350.449219 C 512.144531 352.480469 514.171875 353.496094 515.1875 353.496094 C 517.214844 353.496094 519.242188 352.480469 519.242188 351.464844 C 519.242188 351.464844 519.242188 352.480469 519.242188 353.496094 C 521.269531 353.496094 523.300781 354.511719 524.3125 353.496094 C 526.339844 353.496094 527.355469 352.480469 527.355469 350.449219 C 529.382812 353.496094 533.441406 354.511719 535.46875 353.496094 C 536.484375 352.480469 537.496094 351.464844 538.511719 351.464844 C 540.539062 350.449219 542.566406 352.480469 544.597656 353.496094 C 547.640625 353.496094 549.667969 351.464844 550.679688 349.433594 C 551.695312 346.390625 551.695312 344.359375 551.695312 341.3125 C 551.695312 339.28125 550.679688 337.25 549.667969 335.21875 C 548.652344 334.203125 545.609375 333.191406 544.597656 335.21875 C 542.566406 328.113281 533.441406 324.050781 526.339844 327.097656 C 522.285156 324.050781 519.242188 319.988281 515.1875 317.960938 C 511.128906 314.914062 505.042969 313.898438 502.003906 317.960938 C 497.945312 316.945312 492.875 313.898438 488.816406 316.945312 C 485.777344 319.988281 483.746094 325.066406 481.71875 329.128906 C 480.707031 332.175781 479.691406 335.21875 481.71875 338.265625 C 483.746094 340.296875 490.847656 345.375 493.890625 342.328125 Z M 493.890625 342.328125 "/>
<path style=" stroke:none;fill-rule:nonzero;fill:rgb(96.470588%,72.156863%,51.372549%);fill-opacity:1;" d="M 458.394531 391.066406 L 467.519531 348.421875 L 432.027344 309.835938 L 390.445312 272.269531 C 364.078125 290.542969 338.726562 307.804688 338.726562 307.804688 L 314.386719 307.804688 L 262.664062 295.621094 C 256.578125 303.746094 250.492188 310.851562 246.4375 316.945312 C 223.113281 349.433594 220.070312 410.355469 209.929688 430.664062 C 199.785156 451.988281 137.925781 520.015625 137.925781 520.015625 C 162.261719 565.707031 242.382812 609.367188 249.480469 609.367188 C 256.578125 608.351562 334.667969 485.492188 334.667969 485.492188 C 334.667969 485.492188 396.53125 458.078125 405.660156 457.0625 C 415.800781 455.03125 437.097656 439.800781 447.238281 433.710938 C 458.394531 427.617188 458.394531 391.066406 458.394531 391.066406 Z M 458.394531 391.066406 "/>
<path style=" stroke:none;fill-rule:nonzero;fill:rgb(94.509804%,58.431373%,35.294118%);fill-opacity:1;" d="M 249.480469 609.367188 C 249.480469 608.351562 248.464844 608.351562 248.464844 608.351562 C 247.453125 608.351562 247.453125 608.351562 247.453125 608.351562 L 246.4375 608.351562 C 246.4375 608.351562 246.4375 608.351562 245.421875 608.351562 L 245.421875 607.335938 L 243.394531 607.335938 C 243.394531 606.320312 243.394531 606.320312 242.382812 606.320312 L 241.367188 606.320312 C 241.367188 605.304688 240.351562 605.304688 240.351562 605.304688 C 239.339844 605.304688 239.339844 605.304688 238.324219 604.289062 L 237.308594 604.289062 C 236.296875 603.273438 236.296875 603.273438 236.296875 603.273438 L 235.28125 603.273438 L 234.269531 602.257812 C 233.253906 602.257812 233.253906 602.257812 233.253906 601.246094 L 232.238281 601.246094 C 232.238281 601.246094 231.226562 601.246094 231.226562 600.230469 Z M 240.351562 605.304688 C 239.339844 605.304688 239.339844 605.304688 238.324219 604.289062 Z M 232.238281 601.246094 C 232.238281 601.246094 231.226562 601.246094 231.226562 600.230469 Z M 229.195312 599.214844 C 228.183594 599.214844 228.183594 599.214844 227.167969 598.199219 C 226.15625 598.199219 225.140625 597.183594 224.125 596.167969 L 223.113281 596.167969 C 210.941406 589.058594 195.730469 578.90625 181.53125 567.738281 C 188.632812 564.691406 197.757812 561.644531 201.816406 559.613281 C 213.984375 553.523438 225.140625 547.429688 235.28125 540.324219 C 247.453125 532.199219 257.59375 522.046875 265.707031 509.863281 C 271.792969 500.722656 276.863281 490.570312 276.863281 479.402344 C 276.863281 474.324219 276.863281 469.246094 277.875 465.1875 C 278.890625 460.109375 282.945312 456.046875 287.003906 456.046875 C 287.003906 456.046875 287.003906 456.046875 288.015625 456.046875 C 290.046875 456.046875 293.089844 457.0625 295.117188 459.09375 C 294.101562 459.09375 294.101562 460.109375 295.117188 461.125 C 294.101562 461.125 293.089844 461.125 292.074219 461.125 C 291.058594 461.125 290.046875 461.125 290.046875 461.125 C 288.015625 462.140625 288.015625 465.1875 290.046875 466.203125 C 288.015625 466.203125 288.015625 469.246094 289.03125 470.261719 C 290.046875 471.277344 292.074219 472.292969 293.089844 473.308594 C 294.101562 473.308594 294.101562 473.308594 295.117188 473.308594 C 297.144531 473.308594 298.160156 471.277344 299.171875 471.277344 C 297.144531 474.324219 296.128906 477.371094 297.144531 480.417969 C 298.160156 482.449219 300.1875 484.476562 302.214844 484.476562 C 302.214844 484.476562 302.214844 484.476562 301.203125 485.492188 C 300.1875 487.523438 301.203125 490.570312 303.230469 491.585938 C 302.214844 492.601562 300.1875 493.617188 299.171875 495.648438 C 298.160156 496.664062 298.160156 499.707031 299.171875 500.722656 C 300.1875 501.738281 300.1875 501.738281 301.203125 501.738281 C 299.171875 502.753906 298.160156 503.769531 298.160156 505.800781 C 296.128906 507.832031 296.128906 510.878906 296.128906 513.921875 C 296.128906 514.9375 296.128906 516.96875 297.144531 519 C 298.160156 521.03125 299.171875 522.046875 301.203125 522.046875 C 302.214844 522.046875 302.214844 522.046875 303.230469 522.046875 C 302.214844 523.0625 302.214844 523.0625 302.214844 524.078125 C 302.214844 526.109375 302.214844 528.136719 303.230469 530.167969 C 303.230469 531.183594 303.230469 532.199219 304.242188 532.199219 C 301.203125 537.277344 297.144531 542.355469 294.101562 547.429688 L 294.101562 548.445312 C 293.089844 549.460938 291.058594 551.492188 290.046875 553.523438 L 290.046875 554.539062 L 289.03125 554.539062 L 289.03125 555.554688 L 287.003906 557.582031 L 287.003906 559.613281 L 285.988281 560.628906 L 284.976562 561.644531 L 283.960938 562.660156 L 281.933594 565.707031 L 281.933594 566.722656 L 280.917969 567.738281 L 279.902344 569.769531 L 278.890625 570.785156 L 277.875 571.800781 L 277.875 572.8125 L 275.847656 574.84375 L 273.820312 577.890625 L 272.804688 579.921875 L 271.792969 580.9375 L 270.777344 582.96875 C 269.761719 583.984375 268.75 586.015625 267.734375 587.03125 C 266.71875 589.058594 265.707031 590.074219 264.691406 592.105469 C 263.679688 592.105469 263.679688 593.121094 262.664062 594.136719 C 259.621094 598.199219 256.578125 602.257812 254.550781 604.289062 L 254.550781 605.304688 C 253.535156 605.304688 253.535156 605.304688 253.535156 605.304688 L 253.535156 606.320312 C 253.535156 606.320312 252.523438 606.320312 252.523438 606.320312 C 252.523438 607.335938 251.507812 607.335938 251.507812 607.335938 C 251.507812 607.335938 251.507812 608.351562 251.507812 608.351562 C 250.492188 608.351562 250.492188 608.351562 250.492188 608.351562 C 249.480469 609.367188 249.480469 609.367188 249.480469 609.367188 Z M 406.671875 456.046875 C 407.6875 456.046875 409.714844 456.046875 411.742188 455.03125 L 412.757812 455.03125 L 412.757812 454.015625 L 414.785156 454.015625 L 414.785156 453.003906 L 416.8125 453.003906 L 416.8125 451.988281 L 417.828125 451.988281 C 418.84375 450.972656 418.84375 450.972656 419.855469 450.972656 L 420.871094 449.957031 C 422.898438 448.941406 423.914062 447.925781 425.941406 446.910156 L 426.957031 446.910156 C 428.984375 444.878906 431.011719 443.863281 433.039062 442.847656 L 434.054688 441.832031 L 435.070312 441.832031 L 436.082031 440.816406 L 437.097656 439.800781 L 438.109375 438.785156 L 439.125 438.785156 L 440.140625 437.773438 L 441.152344 437.773438 L 442.167969 436.757812 L 443.183594 436.757812 L 443.183594 435.742188 L 445.210938 435.742188 L 445.210938 434.726562 L 446.222656 434.726562 L 447.238281 433.710938 C 447.238281 433.710938 448.253906 433.710938 448.253906 433.710938 C 448.253906 433.710938 448.253906 433.710938 448.253906 432.695312 C 448.253906 432.695312 449.265625 432.695312 449.265625 432.695312 C 449.265625 431.679688 449.265625 431.679688 450.28125 431.679688 C 450.28125 430.664062 450.28125 430.664062 451.296875 430.664062 C 451.296875 429.648438 451.296875 429.648438 451.296875 429.648438 C 451.296875 429.648438 451.296875 429.648438 451.296875 428.632812 C 452.308594 428.632812 452.308594 428.632812 452.308594 428.632812 C 452.308594 427.617188 452.308594 427.617188 452.308594 427.617188 C 452.308594 427.617188 452.308594 427.617188 452.308594 426.601562 C 453.324219 426.601562 453.324219 426.601562 453.324219 426.601562 C 453.324219 425.585938 453.324219 425.585938 453.324219 425.585938 C 453.324219 425.585938 453.324219 424.570312 453.324219 424.570312 C 453.324219 424.570312 454.335938 424.570312 454.335938 423.554688 C 454.335938 423.554688 454.335938 423.554688 454.335938 422.542969 L 454.335938 421.527344 L 455.351562 420.511719 L 455.351562 416.449219 L 456.367188 416.449219 L 456.367188 410.355469 C 453.324219 411.371094 449.265625 412.386719 446.222656 414.417969 C 428.984375 422.542969 410.730469 428.632812 391.460938 432.695312 C 384.359375 433.710938 377.261719 434.726562 371.175781 436.757812 C 371.175781 445.894531 372.191406 455.03125 373.207031 464.171875 C 377.261719 464.171875 385.375 463.15625 386.390625 463.15625 C 387.402344 463.15625 388.417969 462.140625 389.433594 462.140625 L 390.445312 461.125 L 392.472656 461.125 L 393.488281 460.109375 L 395.515625 460.109375 L 395.515625 459.09375 L 398.558594 459.09375 L 398.558594 458.078125 L 401.601562 458.078125 C 401.601562 458.078125 402.617188 457.0625 402.617188 457.0625 L 404.644531 457.0625 C 405.660156 457.0625 405.660156 457.0625 405.660156 457.0625 Z M 406.671875 456.046875 Z M 355.964844 463.15625 C 352.921875 460.109375 347.851562 457.0625 343.796875 457.0625 C 341.765625 457.0625 339.738281 458.078125 339.738281 459.09375 C 336.695312 458.078125 333.652344 457.0625 330.613281 456.046875 C 339.738281 451.988281 347.851562 444.878906 356.980469 440.816406 C 357.992188 446.910156 359.007812 453.003906 361.035156 458.078125 C 357.992188 459.09375 355.964844 461.125 355.964844 463.15625 Z M 355.964844 463.15625 "/>
<path style=" stroke:none;fill-rule:nonzero;fill:rgb(94.509804%,58.431373%,35.294118%);fill-opacity:1;" d="M 458.394531 397.15625 C 457.378906 396.140625 457.378906 395.125 457.378906 394.109375 C 457.378906 393.097656 458.394531 392.082031 458.394531 391.066406 Z M 458.394531 397.15625 "/>
<path style=" stroke:none;fill-rule:nonzero;fill:rgb(96.470588%,72.156863%,51.372549%);fill-opacity:1;" d="M 398.558594 316.945312 L 461.4375 340.296875 L 505.042969 360.605469 L 540.539062 382.941406 L 533.441406 398.171875 L 503.015625 393.097656 L 449.265625 372.789062 L 414.785156 364.664062 L 406.671875 340.296875 Z M 398.558594 316.945312 "/>
<path style=" stroke:none;fill-rule:nonzero;fill:rgb(98.039216%,84.313725%,75.294118%);fill-opacity:1;" d="M 517.214844 368.726562 C 517.214844 371.773438 516.199219 380.910156 526.339844 383.957031 C 535.46875 387.003906 537.496094 388.019531 540.539062 382.941406 Z M 517.214844 368.726562 "/>
<path style=" stroke:none;fill-rule:nonzero;fill:rgb(94.509804%,58.431373%,35.294118%);fill-opacity:1;" d="M 533.441406 398.171875 L 503.015625 393.097656 L 449.265625 372.789062 L 442.167969 371.773438 C 446.222656 369.742188 451.296875 367.710938 454.335938 365.679688 C 459.40625 361.621094 462.449219 356.542969 466.507812 352.480469 C 467.519531 349.433594 469.550781 347.40625 471.578125 345.375 L 472.59375 345.375 C 472.59375 349.433594 471.578125 352.480469 471.578125 355.527344 C 471.578125 358.574219 472.59375 361.621094 473.605469 364.664062 C 475.632812 367.710938 479.691406 369.742188 483.746094 371.773438 C 497.945312 378.878906 513.15625 383.957031 529.382812 388.019531 C 532.425781 389.035156 534.453125 389.035156 536.484375 391.066406 C 536.484375 391.066406 537.496094 391.066406 537.496094 391.066406 Z M 533.441406 398.171875 "/>
<path style=" stroke:none;fill-rule:nonzero;fill:rgb(93.333333%,48.627451%,25.882353%);fill-opacity:1;" d="M 442.167969 371.773438 L 441.152344 370.757812 L 432.027344 368.726562 L 435.070312 366.695312 L 467.519531 343.34375 L 471.578125 345.375 C 469.550781 347.40625 467.519531 349.433594 466.507812 352.480469 C 462.449219 356.542969 459.40625 361.621094 454.335938 365.679688 C 451.296875 367.710938 446.222656 369.742188 442.167969 371.773438 Z M 442.167969 371.773438 "/>
<path style=" stroke:none;fill-rule:nonzero;fill:rgb(96.470588%,72.156863%,51.372549%);fill-opacity:1;" d="M 506.058594 315.929688 L 537.496094 271.253906 C 537.496094 271.253906 549.667969 235.714844 549.667969 228.609375 C 549.667969 221.5 542.566406 215.40625 538.511719 215.40625 C 534.453125 216.421875 519.242188 245.867188 519.242188 245.867188 L 489.832031 274.300781 L 360.023438 363.652344 L 417.828125 379.894531 Z M 506.058594 315.929688 "/>
<path style=" stroke:none;fill-rule:nonzero;fill:rgb(94.509804%,58.431373%,35.294118%);fill-opacity:1;" d="M 459.40625 329.128906 C 457.378906 328.113281 455.351562 327.097656 454.335938 326.082031 L 456.367188 325.066406 L 460.421875 327.097656 C 460.421875 327.097656 460.421875 327.097656 459.40625 328.113281 C 459.40625 328.113281 459.40625 329.128906 459.40625 329.128906 Z M 459.40625 329.128906 "/>
<path style=" stroke:none;fill-rule:nonzero;fill:rgb(94.509804%,58.431373%,35.294118%);fill-opacity:1;" d="M 481.71875 285.46875 C 480.707031 284.453125 478.675781 284.453125 477.664062 282.421875 L 478.675781 282.421875 C 478.675781 282.421875 479.691406 283.4375 479.691406 283.4375 C 480.707031 284.453125 481.71875 284.453125 481.71875 285.46875 Z M 481.71875 285.46875 "/>
<path style=" stroke:none;fill-rule:nonzero;fill:rgb(94.509804%,58.431373%,35.294118%);fill-opacity:1;" d="M 435.070312 366.695312 C 435.070312 364.664062 434.054688 363.652344 435.070312 361.621094 C 435.070312 354.511719 439.125 348.421875 444.195312 343.34375 C 449.265625 338.265625 455.351562 334.203125 459.40625 329.128906 C 462.449219 331.160156 465.492188 332.175781 468.535156 333.191406 C 471.578125 334.203125 474.621094 336.234375 477.664062 336.234375 Z M 435.070312 366.695312 "/>
<path style=" stroke:none;fill-rule:nonzero;fill:rgb(94.509804%,58.431373%,35.294118%);fill-opacity:1;" d="M 512.144531 307.804688 C 510.117188 306.789062 509.101562 306.789062 509.101562 306.789062 L 468.535156 293.589844 L 464.480469 292.574219 C 468.535156 292.574219 473.605469 293.589844 477.664062 294.605469 C 478.675781 294.605469 478.675781 294.605469 479.691406 294.605469 C 480.707031 294.605469 481.71875 294.605469 481.71875 294.605469 C 483.746094 293.589844 484.761719 290.542969 483.746094 288.515625 C 483.746094 287.5 482.734375 286.484375 481.71875 285.46875 C 484.761719 286.484375 488.816406 286.484375 491.859375 287.5 C 498.960938 287.5 507.074219 288.515625 515.1875 289.527344 C 517.214844 289.527344 520.257812 289.527344 523.300781 289.527344 C 523.300781 289.527344 524.3125 289.527344 524.3125 289.527344 L 517.214844 299.683594 Z M 512.144531 307.804688 "/>
<path style=" stroke:none;fill-rule:nonzero;fill:rgb(94.509804%,58.431373%,35.294118%);fill-opacity:1;" d="M 539.527344 266.175781 L 539.527344 264.144531 L 531.414062 262.113281 C 534.453125 259.070312 536.484375 255.007812 538.511719 250.945312 C 541.554688 244.855469 544.597656 238.761719 545.609375 232.667969 C 546.625 228.609375 547.640625 224.546875 546.625 220.484375 L 546.625 221.5 C 546.625 221.5 546.625 221.5 547.640625 221.5 C 547.640625 221.5 547.640625 221.5 547.640625 222.515625 L 547.640625 223.53125 L 548.652344 223.53125 L 548.652344 226.578125 L 549.667969 226.578125 L 549.667969 229.625 C 549.667969 229.625 549.667969 230.636719 549.667969 230.636719 L 548.652344 230.636719 L 548.652344 235.714844 L 547.640625 235.714844 L 547.640625 239.777344 L 546.625 239.777344 L 546.625 242.824219 L 545.609375 243.839844 L 545.609375 246.882812 L 544.597656 246.882812 L 544.597656 249.929688 L 543.582031 250.945312 L 543.582031 253.992188 L 542.566406 253.992188 L 542.566406 257.039062 L 541.554688 257.039062 L 541.554688 260.082031 L 540.539062 261.097656 L 540.539062 262.113281 L 539.527344 265.160156 Z M 539.527344 266.175781 "/>
<path style=" stroke:none;fill-rule:nonzero;fill:rgb(93.333333%,48.627451%,25.882353%);fill-opacity:1;" d="M 477.664062 336.234375 C 474.621094 336.234375 471.578125 334.203125 468.535156 333.191406 C 465.492188 332.175781 462.449219 331.160156 459.40625 329.128906 C 459.40625 329.128906 459.40625 328.113281 459.40625 328.113281 C 460.421875 327.097656 460.421875 327.097656 460.421875 327.097656 L 478.675781 333.191406 L 481.71875 333.191406 L 480.707031 334.203125 Z M 477.664062 336.234375 "/>
<path style=" stroke:none;fill-rule:nonzero;fill:rgb(93.333333%,48.627451%,25.882353%);fill-opacity:1;" d="M 523.300781 289.527344 C 520.257812 289.527344 517.214844 289.527344 515.1875 289.527344 C 507.074219 288.515625 498.960938 287.5 491.859375 287.5 C 488.816406 286.484375 484.761719 286.484375 481.71875 285.46875 C 481.71875 284.453125 480.707031 284.453125 479.691406 283.4375 C 479.691406 283.4375 478.675781 282.421875 478.675781 282.421875 L 478.675781 281.40625 L 502.003906 285.46875 L 529.382812 282.421875 L 524.3125 289.527344 C 524.3125 289.527344 523.300781 289.527344 523.300781 289.527344 Z M 523.300781 289.527344 "/>
<path style=" stroke:none;fill-rule:nonzero;fill:rgb(98.039216%,84.313725%,75.294118%);fill-opacity:1;" d="M 539.527344 221.5 C 539.527344 221.5 531.414062 233.683594 532.425781 235.714844 C 533.441406 237.746094 541.554688 239.777344 545.609375 243.839844 C 547.640625 236.730469 549.667969 230.636719 549.667969 228.609375 C 549.667969 226.578125 548.652344 225.5625 548.652344 224.546875 C 545.609375 222.515625 541.554688 220.484375 539.527344 221.5 Z M 539.527344 221.5 "/>
<path style=" stroke:none;fill-rule:nonzero;fill:rgb(96.470588%,72.156863%,51.372549%);fill-opacity:1;" d="M 420.871094 280.390625 L 468.535156 293.589844 L 509.101562 306.789062 C 509.101562 306.789062 568.9375 331.160156 570.964844 331.160156 C 572.992188 332.175781 564.878906 343.34375 564.878906 343.34375 C 564.878906 343.34375 546.625 349.433594 544.597656 348.421875 C 541.554688 348.421875 504.03125 336.234375 504.03125 336.234375 L 478.675781 333.191406 L 456.367188 325.066406 L 419.855469 328.113281 L 393.488281 319.988281 Z M 420.871094 280.390625 "/>
<path style=" stroke:none;fill-rule:nonzero;fill:rgb(94.509804%,58.431373%,35.294118%);fill-opacity:1;" d="M 446.222656 302.730469 C 444.195312 301.714844 442.167969 301.714844 440.140625 301.714844 C 444.195312 297.652344 448.253906 293.589844 452.308594 289.527344 L 456.367188 290.542969 C 455.351562 291.558594 454.335938 291.558594 454.335938 292.574219 C 451.296875 295.621094 448.253906 298.667969 446.222656 302.730469 Z M 446.222656 302.730469 "/>
<path style=" stroke:none;fill-rule:nonzero;fill:rgb(93.333333%,48.627451%,25.882353%);fill-opacity:1;" d="M 419.855469 328.113281 L 414.785156 327.097656 C 414.785156 326.082031 415.800781 326.082031 415.800781 325.066406 C 423.914062 317.960938 432.027344 309.835938 440.140625 301.714844 C 442.167969 301.714844 444.195312 301.714844 446.222656 302.730469 C 445.210938 303.746094 444.195312 304.757812 444.195312 306.789062 C 442.167969 309.835938 440.140625 311.867188 439.125 314.914062 C 437.097656 319.988281 435.070312 324.050781 432.027344 327.097656 Z M 419.855469 328.113281 "/>
<path style=" stroke:none;fill-rule:nonzero;fill:rgb(98.039216%,84.313725%,75.294118%);fill-opacity:1;" d="M 542.566406 319.988281 C 542.566406 323.035156 543.582031 329.128906 550.679688 331.160156 C 559.808594 333.191406 567.921875 336.234375 570.964844 332.175781 C 570.964844 332.175781 570.964844 332.175781 570.964844 331.160156 C 569.949219 331.160156 556.765625 326.082031 542.566406 319.988281 Z M 542.566406 319.988281 "/>
<path style=" stroke:none;fill-rule:nonzero;fill:rgb(96.470588%,72.156863%,51.372549%);fill-opacity:1;" d="M 386.390625 354.511719 C 386.390625 354.511719 471.578125 271.253906 474.621094 267.191406 C 478.675781 262.113281 527.355469 194.085938 531.414062 186.976562 C 535.46875 178.855469 527.355469 166.671875 522.285156 165.65625 C 516.199219 164.640625 458.394531 224.546875 448.253906 232.667969 C 443.183594 235.714844 415.800781 253.992188 390.445312 272.269531 L 307.285156 328.113281 Z M 386.390625 354.511719 "/>
<path style=" stroke:none;fill-rule:nonzero;fill:rgb(94.509804%,58.431373%,35.294118%);fill-opacity:1;" d="M 348.867188 308.820312 C 346.839844 308.820312 344.808594 308.820312 343.796875 308.820312 C 342.78125 307.804688 341.765625 307.804688 340.753906 307.804688 C 340.753906 306.789062 340.753906 306.789062 340.753906 305.773438 L 352.921875 297.652344 C 349.878906 300.699219 347.851562 303.746094 348.867188 305.773438 C 348.867188 306.789062 349.878906 307.804688 349.878906 308.820312 C 349.878906 308.820312 349.878906 308.820312 348.867188 308.820312 Z M 373.207031 303.746094 C 372.191406 296.636719 370.164062 290.542969 367.121094 287.5 L 368.136719 286.484375 L 374.21875 286.484375 C 379.289062 287.5 385.375 287.5 388.417969 287.5 C 395.515625 288.515625 401.601562 289.527344 407.6875 289.527344 C 404.644531 289.527344 401.601562 290.542969 398.558594 291.558594 C 391.460938 293.589844 384.359375 297.652344 378.277344 300.699219 C 376.25 301.714844 375.234375 302.730469 373.207031 303.746094 Z M 429.996094 290.542969 C 429.996094 290.542969 429.996094 290.542969 431.011719 290.542969 C 431.011719 290.542969 431.011719 290.542969 429.996094 290.542969 Z M 429.996094 290.542969 "/>
<path style=" stroke:none;fill-rule:nonzero;fill:rgb(94.509804%,58.431373%,35.294118%);fill-opacity:1;" d="M 415.800781 325.066406 C 414.785156 323.035156 419.855469 318.976562 420.871094 317.960938 C 424.925781 313.898438 427.96875 309.835938 431.011719 305.773438 C 432.027344 303.746094 433.039062 302.730469 434.054688 300.699219 C 434.054688 296.636719 432.027344 293.589844 431.011719 290.542969 C 432.027344 290.542969 433.039062 290.542969 435.070312 290.542969 C 442.167969 289.527344 449.265625 288.515625 455.351562 286.484375 L 454.335938 287.5 L 453.324219 288.515625 L 452.308594 289.527344 L 449.265625 292.574219 L 448.253906 293.589844 L 445.210938 296.636719 L 443.183594 298.667969 L 442.167969 299.683594 L 441.152344 299.683594 L 441.152344 300.699219 L 440.140625 301.714844 L 438.109375 303.746094 L 437.097656 303.746094 L 437.097656 304.757812 L 436.082031 304.757812 L 436.082031 305.773438 L 435.070312 305.773438 L 435.070312 306.789062 L 434.054688 307.804688 L 433.039062 307.804688 L 433.039062 308.820312 L 432.027344 309.835938 L 431.011719 309.835938 L 431.011719 310.851562 L 429.996094 311.867188 L 428.984375 311.867188 L 428.984375 312.882812 L 427.96875 313.898438 L 426.957031 313.898438 L 426.957031 314.914062 L 425.941406 314.914062 L 425.941406 315.929688 L 424.925781 315.929688 L 424.925781 316.945312 L 423.914062 316.945312 L 423.914062 317.960938 L 422.898438 317.960938 L 422.898438 318.976562 L 421.882812 318.976562 Z M 423.914062 290.542969 C 421.882812 290.542969 418.84375 290.542969 415.800781 290.542969 C 413.773438 290.542969 410.730469 290.542969 407.6875 289.527344 C 408.699219 289.527344 409.714844 289.527344 410.730469 289.527344 C 413.773438 289.527344 417.828125 289.527344 420.871094 290.542969 C 423.914062 290.542969 426.957031 290.542969 429.996094 290.542969 C 427.96875 290.542969 425.941406 290.542969 423.914062 290.542969 Z M 423.914062 290.542969 "/>
<path style=" stroke:none;fill-rule:nonzero;fill:rgb(93.333333%,48.627451%,25.882353%);fill-opacity:1;" d="M 431.011719 290.542969 C 429.996094 290.542969 429.996094 290.542969 429.996094 290.542969 C 426.957031 290.542969 423.914062 290.542969 420.871094 290.542969 C 417.828125 289.527344 413.773438 289.527344 410.730469 289.527344 C 409.714844 289.527344 408.699219 289.527344 407.6875 289.527344 C 401.601562 289.527344 395.515625 288.515625 388.417969 287.5 C 385.375 287.5 379.289062 287.5 374.21875 286.484375 L 385.375 286.484375 L 421.882812 285.46875 L 453.324219 278.359375 L 462.449219 279.375 L 461.4375 280.390625 L 460.421875 281.40625 L 460.421875 282.421875 L 459.40625 282.421875 L 459.40625 283.4375 L 458.394531 283.4375 L 457.378906 284.453125 L 456.367188 285.46875 L 455.351562 286.484375 C 449.265625 288.515625 442.167969 289.527344 435.070312 290.542969 C 433.039062 290.542969 432.027344 290.542969 431.011719 290.542969 Z M 431.011719 290.542969 "/>
<path style=" stroke:none;fill-rule:nonzero;fill:rgb(96.470588%,72.156863%,51.372549%);fill-opacity:1;" d="M 360.023438 237.746094 C 363.0625 239.777344 440.140625 241.808594 440.140625 241.808594 L 518.230469 259.070312 L 539.527344 264.144531 L 536.484375 282.421875 L 502.003906 285.46875 L 453.324219 278.359375 L 421.882812 285.46875 L 357.992188 286.484375 L 324.527344 296.636719 Z M 360.023438 237.746094 "/>
<path style=" stroke:none;fill-rule:nonzero;fill:rgb(98.039216%,84.313725%,75.294118%);fill-opacity:1;" d="M 515.1875 258.054688 C 515.1875 261.097656 516.199219 266.175781 520.257812 267.191406 C 526.339844 268.207031 535.46875 272.269531 539.527344 264.144531 L 518.230469 259.070312 Z M 515.1875 258.054688 "/>
<path style=" stroke:none;fill-rule:nonzero;fill:rgb(94.509804%,58.431373%,35.294118%);fill-opacity:1;" d="M 385.375 286.484375 C 384.359375 285.46875 383.347656 284.453125 381.320312 284.453125 C 376.25 281.40625 370.164062 282.421875 366.105469 278.359375 C 364.078125 276.328125 362.050781 273.285156 361.035156 270.238281 C 360.023438 268.207031 359.007812 266.175781 359.007812 264.144531 C 359.007812 263.128906 359.007812 263.128906 360.023438 263.128906 C 370.164062 267.191406 380.304688 272.269531 391.460938 272.269531 C 392.472656 272.269531 392.472656 272.269531 393.488281 272.269531 C 401.601562 272.269531 409.714844 270.238281 417.828125 267.191406 C 425.941406 264.144531 434.054688 261.097656 442.167969 261.097656 C 443.183594 261.097656 444.195312 261.097656 444.195312 261.097656 C 452.308594 262.113281 459.40625 265.160156 466.507812 267.191406 C 489.832031 274.300781 514.171875 275.3125 537.496094 276.328125 L 536.484375 282.421875 L 502.003906 285.46875 L 462.449219 279.375 L 453.324219 278.359375 L 421.882812 285.46875 Z M 385.375 286.484375 "/>
<path style=" stroke:none;fill-rule:nonzero;fill:rgb(93.333333%,48.627451%,25.882353%);fill-opacity:1;" d="M 345.824219 290.542969 C 349.878906 280.390625 354.949219 269.222656 359.007812 264.144531 C 359.007812 266.175781 360.023438 268.207031 361.035156 270.238281 C 362.050781 273.285156 364.078125 276.328125 366.105469 278.359375 C 370.164062 282.421875 376.25 281.40625 381.320312 284.453125 C 383.347656 284.453125 384.359375 285.46875 385.375 286.484375 L 365.09375 286.484375 C 364.078125 286.484375 364.078125 286.484375 363.0625 286.484375 L 357.992188 286.484375 Z M 345.824219 290.542969 "/>
<path style=" stroke:none;fill-rule:nonzero;fill:rgb(99.607843%,99.607843%,99.607843%);fill-opacity:1;" d="M 433.039062 331.160156 C 431.011719 331.160156 427.96875 333.191406 424.925781 334.203125 C 422.898438 334.203125 418.84375 334.203125 417.828125 331.160156 C 415.800781 334.203125 411.742188 335.21875 408.699219 334.203125 C 405.660156 333.191406 403.628906 331.160156 402.617188 329.128906 C 400.585938 326.082031 399.574219 322.019531 401.601562 317.960938 C 403.628906 314.914062 408.699219 313.898438 410.730469 316.945312 C 410.730469 314.914062 409.714844 311.867188 410.730469 309.835938 C 410.730469 307.804688 412.757812 304.757812 414.785156 304.757812 C 414.785156 301.714844 412.757812 299.683594 412.757812 296.636719 C 412.757812 293.589844 414.785156 290.542969 417.828125 291.558594 C 413.773438 289.527344 411.742188 284.453125 411.742188 280.390625 C 412.757812 276.328125 415.800781 272.269531 419.855469 271.253906 C 420.871094 273.285156 422.898438 275.3125 424.925781 277.34375 C 425.941406 278.359375 426.957031 279.375 426.957031 279.375 C 428.984375 280.390625 432.027344 279.375 433.039062 277.34375 C 435.070312 275.3125 436.082031 273.285156 438.109375 273.285156 C 440.140625 272.269531 443.183594 273.285156 443.183594 275.3125 C 446.222656 272.269531 451.296875 269.222656 455.351562 271.253906 C 457.378906 273.285156 458.394531 276.328125 457.378906 278.359375 C 456.367188 280.390625 454.335938 282.421875 455.351562 284.453125 C 457.378906 283.4375 460.421875 282.421875 462.449219 281.40625 C 462.449219 281.40625 463.464844 281.40625 464.480469 281.40625 C 465.492188 281.40625 465.492188 284.453125 463.464844 285.46875 C 462.449219 286.484375 461.4375 288.515625 462.449219 289.527344 C 462.449219 290.542969 463.464844 290.542969 464.480469 290.542969 C 467.519531 291.558594 470.5625 292.574219 473.605469 292.574219 C 475.632812 293.589844 476.648438 293.589844 477.664062 294.605469 C 478.675781 295.621094 478.675781 296.636719 478.675781 297.652344 C 477.664062 299.683594 475.632812 299.683594 474.621094 299.683594 C 472.59375 299.683594 470.5625 300.699219 471.578125 302.730469 C 471.578125 303.746094 471.578125 303.746094 472.59375 304.757812 C 472.59375 305.773438 469.550781 306.789062 468.535156 306.789062 C 457.378906 309.835938 468.535156 325.066406 457.378906 328.113281 C 453.324219 329.128906 447.238281 328.113281 443.183594 329.128906 C 442.167969 330.144531 441.152344 332.175781 439.125 332.175781 C 436.082031 333.191406 435.070312 331.160156 433.039062 331.160156 Z M 433.039062 331.160156 "/>
<path style=" stroke:none;fill-rule:nonzero;fill:rgb(96.470588%,72.156863%,51.372549%);fill-opacity:1;" d="M 338.726562 307.804688 C 338.726562 307.804688 353.9375 269.222656 360.023438 262.113281 C 366.105469 255.007812 394.503906 192.054688 394.503906 192.054688 C 394.503906 192.054688 381.320312 172.761719 375.234375 174.792969 C 370.164062 176.824219 338.726562 189.007812 307.285156 235.714844 C 300.1875 246.882812 278.890625 273.285156 262.664062 295.621094 L 314.386719 307.804688 Z M 338.726562 307.804688 "/>
<path style=" stroke:none;fill-rule:nonzero;fill:rgb(94.509804%,58.431373%,35.294118%);fill-opacity:1;" d="M 340.753906 302.730469 C 341.765625 290.542969 341.765625 279.375 345.824219 269.222656 C 348.867188 258.054688 353.9375 246.882812 359.007812 236.730469 C 364.078125 227.59375 370.164062 218.453125 376.25 208.300781 C 379.289062 203.222656 383.347656 197.132812 383.347656 191.039062 C 384.359375 185.960938 383.347656 181.902344 381.320312 176.824219 C 381.320312 176.824219 381.320312 177.839844 382.332031 177.839844 L 383.347656 178.855469 L 384.359375 179.871094 L 386.390625 181.902344 L 387.402344 182.917969 L 387.402344 183.933594 L 388.417969 183.933594 L 388.417969 184.949219 L 389.433594 184.949219 L 389.433594 185.960938 L 390.445312 185.960938 L 390.445312 186.976562 L 391.460938 186.976562 L 391.460938 187.992188 L 392.472656 189.007812 L 392.472656 190.023438 L 393.488281 190.023438 L 393.488281 191.039062 L 394.503906 191.039062 L 394.503906 192.054688 C 394.503906 192.054688 366.105469 255.007812 360.023438 262.113281 L 360.023438 263.128906 L 359.007812 263.128906 L 359.007812 264.144531 L 357.992188 264.144531 L 357.992188 266.175781 L 356.980469 266.175781 L 356.980469 267.191406 L 355.964844 268.207031 L 355.964844 269.222656 L 354.949219 270.238281 L 354.949219 271.253906 L 353.9375 272.269531 C 353.9375 272.269531 353.9375 273.285156 352.921875 274.300781 L 352.921875 275.3125 C 351.910156 276.328125 351.910156 277.34375 350.894531 278.359375 L 350.894531 279.375 C 349.878906 281.40625 348.867188 282.421875 348.867188 283.4375 L 348.867188 284.453125 C 344.808594 290.542969 342.78125 297.652344 340.753906 302.730469 Z M 340.753906 302.730469 "/>
<path style=" stroke:none;fill-rule:nonzero;fill:rgb(98.039216%,84.313725%,75.294118%);fill-opacity:1;" d="M 368.136719 185.960938 C 368.136719 185.960938 350.894531 200.179688 351.910156 204.238281 C 352.921875 208.300781 373.207031 215.40625 374.21875 219.46875 C 376.25 222.515625 388.417969 200.179688 388.417969 197.132812 C 389.433594 194.085938 375.234375 181.902344 368.136719 185.960938 Z M 368.136719 185.960938 "/>
<path style=" stroke:none;fill-rule:nonzero;fill:rgb(99.607843%,99.607843%,99.607843%);fill-opacity:1;" d="M 449.265625 395.125 C 449.265625 397.15625 449.265625 398.171875 449.265625 400.203125 C 450.28125 400.203125 450.28125 400.203125 451.296875 400.203125 C 447.238281 400.203125 442.167969 403.25 441.152344 407.3125 C 438.109375 408.328125 436.082031 411.371094 436.082031 414.417969 C 434.054688 412.386719 429.996094 410.355469 425.941406 411.371094 C 422.898438 411.371094 419.855469 415.433594 420.871094 419.496094 C 417.828125 418.480469 414.785156 417.464844 411.742188 416.449219 C 409.714844 416.449219 406.671875 416.449219 406.671875 418.480469 C 405.660156 419.496094 406.671875 420.511719 405.660156 421.527344 C 405.660156 422.542969 404.644531 422.542969 403.628906 423.554688 C 401.601562 424.570312 401.601562 427.617188 402.617188 429.648438 C 402.617188 430.664062 402.617188 431.679688 402.617188 431.679688 C 403.628906 432.695312 405.660156 432.695312 406.671875 431.679688 C 409.714844 430.664062 411.742188 429.648438 414.785156 427.617188 C 416.8125 427.617188 418.84375 426.601562 419.855469 426.601562 C 420.871094 427.617188 421.882812 427.617188 421.882812 428.632812 C 424.925781 429.648438 427.96875 426.601562 431.011719 426.601562 C 433.039062 425.585938 436.082031 427.617188 438.109375 426.601562 C 439.125 426.601562 440.140625 425.585938 441.152344 425.585938 C 444.195312 423.554688 447.238281 422.542969 451.296875 423.554688 C 452.308594 423.554688 454.335938 424.570312 456.367188 423.554688 C 457.378906 422.542969 457.378906 421.527344 458.394531 420.511719 C 459.40625 418.480469 460.421875 415.433594 460.421875 412.386719 C 462.449219 412.386719 465.492188 412.386719 468.535156 411.371094 C 470.5625 409.339844 472.59375 407.3125 472.59375 404.265625 C 473.605469 406.296875 474.621094 408.328125 475.632812 409.339844 C 475.632812 410.355469 476.648438 411.371094 477.664062 410.355469 C 478.675781 410.355469 478.675781 410.355469 478.675781 409.339844 C 479.691406 405.28125 479.691406 401.21875 476.648438 398.171875 C 474.621094 396.140625 471.578125 394.109375 467.519531 394.109375 C 473.605469 387.003906 449.265625 380.910156 453.324219 393.097656 C 452.308594 393.097656 450.28125 394.109375 449.265625 395.125 Z M 449.265625 395.125 "/>
<path style=" stroke:none;fill-rule:nonzero;fill:rgb(99.607843%,99.607843%,99.607843%);fill-opacity:1;" d="M 455.351562 443.863281 C 453.324219 443.863281 452.308594 443.863281 450.28125 444.878906 C 449.265625 445.894531 449.265625 447.925781 449.265625 448.941406 C 450.28125 449.957031 452.308594 450.972656 453.324219 449.957031 C 452.308594 449.957031 451.296875 450.972656 451.296875 451.988281 C 452.308594 453.003906 453.324219 454.015625 454.335938 454.015625 C 455.351562 454.015625 456.367188 454.015625 457.378906 454.015625 C 458.394531 454.015625 459.40625 453.003906 460.421875 451.988281 C 461.4375 450.972656 460.421875 448.941406 461.4375 446.910156 C 462.449219 446.910156 462.449219 446.910156 463.464844 445.894531 C 464.480469 445.894531 464.480469 442.847656 462.449219 442.847656 C 463.464844 442.847656 463.464844 440.816406 463.464844 439.800781 C 463.464844 439.800781 462.449219 438.785156 461.4375 438.785156 C 460.421875 438.785156 458.394531 438.785156 458.394531 439.800781 C 457.378906 440.816406 456.367188 440.816406 456.367188 441.832031 Z M 455.351562 443.863281 "/>
<path style=" stroke:none;fill-rule:nonzero;fill:rgb(99.607843%,99.607843%,99.607843%);fill-opacity:1;" d="M 506.058594 171.746094 C 504.03125 170.730469 502.003906 170.730469 499.972656 171.746094 C 497.945312 172.761719 497.945312 175.808594 499.972656 176.824219 C 500.988281 175.808594 498.960938 174.792969 497.945312 174.792969 C 496.929688 174.792969 495.917969 175.808594 494.902344 176.824219 C 493.890625 178.855469 493.890625 180.886719 493.890625 182.917969 C 490.847656 182.917969 488.816406 184.949219 488.816406 187.992188 C 485.777344 187.992188 484.761719 191.039062 484.761719 194.085938 C 481.71875 197.132812 478.675781 200.179688 475.632812 203.222656 C 474.621094 204.238281 473.605469 205.253906 473.605469 207.285156 C 473.605469 209.316406 473.605469 210.332031 475.632812 211.347656 C 476.648438 212.363281 478.675781 211.347656 479.691406 210.332031 C 480.707031 208.300781 481.71875 207.285156 483.746094 206.269531 C 487.804688 203.222656 493.890625 206.269531 497.945312 203.222656 C 498.960938 202.207031 498.960938 201.191406 499.972656 200.179688 C 503.015625 198.148438 507.074219 200.179688 511.128906 199.164062 C 513.15625 198.148438 515.1875 196.117188 516.199219 194.085938 C 519.242188 191.039062 521.269531 186.976562 524.3125 183.933594 C 526.339844 183.933594 528.371094 183.933594 530.398438 182.917969 C 530.398438 184.949219 531.414062 185.960938 532.425781 186.976562 C 536.484375 182.917969 535.46875 175.808594 532.425781 171.746094 C 535.46875 170.730469 535.46875 165.65625 533.441406 163.625 C 532.425781 163.625 531.414062 162.609375 530.398438 162.609375 C 529.382812 159.5625 530.398438 156.515625 525.328125 157.53125 C 522.285156 157.53125 521.269531 159.5625 519.242188 161.59375 C 515.1875 164.640625 504.03125 164.640625 506.058594 171.746094 Z M 506.058594 171.746094 "/>
<path style=" stroke:none;fill-rule:nonzero;fill:rgb(99.607843%,99.607843%,99.607843%);fill-opacity:1;" d="M 399.574219 218.453125 C 400.585938 219.46875 402.617188 219.46875 403.628906 218.453125 C 403.628906 217.4375 402.617188 218.453125 402.617188 218.453125 C 401.601562 219.46875 401.601562 220.484375 401.601562 221.5 C 400.585938 221.5 400.585938 221.5 401.601562 222.515625 C 401.601562 222.515625 401.601562 222.515625 402.617188 222.515625 C 404.644531 222.515625 405.660156 221.5 406.671875 220.484375 C 407.6875 219.46875 409.714844 217.4375 408.699219 216.421875 C 410.730469 216.421875 411.742188 216.421875 412.757812 215.40625 C 413.773438 214.394531 413.773438 213.378906 412.757812 212.363281 C 413.773438 211.347656 413.773438 210.332031 413.773438 209.316406 C 412.757812 208.300781 411.742188 208.300781 410.730469 207.285156 C 410.730469 207.285156 409.714844 207.285156 409.714844 207.285156 C 409.714844 207.285156 409.714844 207.285156 408.699219 207.285156 C 407.6875 205.253906 405.660156 206.269531 404.644531 207.285156 C 406.671875 202.207031 396.53125 204.238281 394.503906 207.285156 C 393.488281 210.332031 395.515625 217.4375 399.574219 214.394531 C 398.558594 215.40625 398.558594 217.4375 399.574219 218.453125 Z M 399.574219 218.453125 "/>
<path style=" stroke:none;fill-rule:nonzero;fill:rgb(99.607843%,99.607843%,99.607843%);fill-opacity:1;" d="M 427.96875 224.546875 C 426.957031 225.5625 425.941406 226.578125 426.957031 227.59375 C 427.96875 228.609375 428.984375 227.59375 429.996094 226.578125 C 428.984375 227.59375 429.996094 228.609375 431.011719 227.59375 C 432.027344 227.59375 432.027344 227.59375 433.039062 226.578125 C 433.039062 225.5625 433.039062 225.5625 434.054688 224.546875 C 434.054688 223.53125 435.070312 222.515625 434.054688 221.5 C 434.054688 220.484375 433.039062 219.46875 432.027344 220.484375 C 432.027344 219.46875 431.011719 218.453125 429.996094 218.453125 C 429.996094 218.453125 428.984375 219.46875 428.984375 219.46875 C 427.96875 219.46875 426.957031 219.46875 426.957031 219.46875 C 425.941406 220.484375 425.941406 221.5 425.941406 221.5 C 425.941406 222.515625 425.941406 223.53125 425.941406 223.53125 C 426.957031 224.546875 427.96875 224.546875 427.96875 224.546875 Z M 427.96875 224.546875 "/>
<path style=" stroke:none;fill-rule:nonzero;fill:rgb(99.607843%,99.607843%,99.607843%);fill-opacity:1;" d="M 370.164062 464.171875 C 369.148438 461.125 366.105469 458.078125 363.0625 458.078125 C 360.023438 458.078125 355.964844 460.109375 355.964844 463.15625 C 352.921875 460.109375 347.851562 457.0625 343.796875 457.0625 C 341.765625 457.0625 339.738281 458.078125 339.738281 459.09375 C 334.667969 457.0625 329.597656 456.046875 324.527344 455.03125 C 322.5 455.03125 321.484375 455.03125 320.46875 456.046875 C 320.46875 456.046875 319.457031 457.0625 319.457031 457.0625 C 318.441406 457.0625 318.441406 457.0625 317.425781 457.0625 C 315.398438 456.046875 313.371094 454.015625 310.328125 453.003906 C 307.285156 453.003906 304.242188 454.015625 304.242188 457.0625 C 303.230469 457.0625 301.203125 457.0625 300.1875 457.0625 C 299.171875 457.0625 298.160156 457.0625 298.160156 457.0625 C 296.128906 457.0625 293.089844 459.09375 295.117188 461.125 C 293.089844 461.125 291.058594 460.109375 290.046875 461.125 C 288.015625 462.140625 288.015625 465.1875 290.046875 466.203125 C 288.015625 466.203125 288.015625 469.246094 289.03125 470.261719 C 290.046875 471.277344 292.074219 472.292969 293.089844 473.308594 C 294.101562 473.308594 295.117188 473.308594 295.117188 473.308594 C 297.144531 473.308594 298.160156 470.261719 299.171875 471.277344 C 297.144531 474.324219 296.128906 477.371094 297.144531 480.417969 C 298.160156 483.460938 301.203125 485.492188 304.242188 484.476562 C 304.242188 483.460938 302.214844 484.476562 301.203125 485.492188 C 300.1875 487.523438 301.203125 490.570312 303.230469 491.585938 C 302.214844 492.601562 300.1875 493.617188 299.171875 495.648438 C 298.160156 496.664062 298.160156 499.707031 299.171875 500.722656 C 300.1875 502.753906 303.230469 502.753906 304.242188 501.738281 C 302.214844 500.722656 299.171875 502.753906 298.160156 505.800781 C 296.128906 507.832031 296.128906 510.878906 296.128906 513.921875 C 296.128906 514.9375 296.128906 516.96875 297.144531 519 C 298.160156 521.03125 299.171875 522.046875 301.203125 522.046875 C 303.230469 522.046875 305.257812 521.03125 305.257812 519 C 303.230469 520.015625 302.214844 522.046875 302.214844 524.078125 C 302.214844 526.109375 302.214844 528.136719 303.230469 530.167969 C 303.230469 532.199219 304.242188 533.214844 306.273438 533.214844 C 306.273438 533.214844 307.285156 532.199219 307.285156 532.199219 C 310.328125 528.136719 312.355469 524.078125 313.371094 520.015625 C 318.441406 517.984375 322.5 512.90625 326.554688 508.847656 C 327.570312 508.847656 327.570312 507.832031 328.582031 506.816406 C 330.613281 504.785156 333.652344 501.738281 335.683594 499.707031 C 333.652344 501.738281 332.640625 504.785156 333.652344 507.832031 C 333.652344 510.878906 335.683594 513.921875 338.726562 514.9375 C 339.738281 513.921875 339.738281 512.90625 339.738281 511.894531 C 338.726562 513.921875 337.710938 515.953125 337.710938 516.96875 C 337.710938 519 338.726562 522.046875 339.738281 522.046875 C 340.753906 523.0625 342.78125 523.0625 343.796875 522.046875 C 345.824219 522.046875 346.839844 521.03125 348.867188 520.015625 C 349.878906 523.0625 349.878906 527.125 350.894531 530.167969 C 351.910156 532.199219 353.9375 531.183594 354.949219 529.152344 C 355.964844 528.136719 355.964844 526.109375 355.964844 525.09375 C 355.964844 523.0625 355.964844 521.03125 354.949219 519 C 353.9375 516.96875 352.921875 515.953125 350.894531 515.953125 C 350.894531 513.921875 352.921875 512.90625 353.9375 511.894531 C 355.964844 509.863281 354.949219 505.800781 352.921875 504.785156 C 354.949219 503.769531 356.980469 501.738281 357.992188 498.691406 C 357.992188 496.664062 356.980469 493.617188 355.964844 491.585938 C 360.023438 489.554688 361.035156 483.460938 359.007812 479.402344 C 361.035156 478.386719 363.0625 476.355469 365.09375 474.324219 C 369.148438 474.324219 373.207031 475.339844 377.261719 473.308594 C 378.277344 473.308594 379.289062 472.292969 380.304688 472.292969 C 382.332031 471.277344 384.359375 472.292969 387.402344 472.292969 C 389.433594 473.308594 392.472656 472.292969 393.488281 471.277344 C 394.503906 469.246094 394.503906 467.21875 394.503906 465.1875 C 392.472656 460.109375 389.433594 462.140625 386.390625 463.15625 C 385.375 463.15625 370.164062 465.1875 370.164062 464.171875 Z M 370.164062 464.171875 "/>
<path style=" stroke:none;fill-rule:nonzero;fill:rgb(49.803922%,80.392157%,90.980392%);fill-opacity:1;" d="M 368.136719 488.539062 C 366.105469 488.539062 363.0625 485.492188 363.0625 480.417969 C 363.0625 478.386719 363.0625 477.371094 363.0625 476.355469 C 364.078125 475.339844 364.078125 475.339844 365.09375 474.324219 C 366.105469 474.324219 368.136719 474.324219 370.164062 474.324219 C 371.175781 474.324219 372.191406 474.324219 374.21875 474.324219 C 374.21875 474.324219 374.21875 475.339844 374.21875 475.339844 C 374.21875 477.371094 373.207031 478.386719 373.207031 480.417969 C 372.191406 485.492188 370.164062 488.539062 368.136719 488.539062 Z M 368.136719 488.539062 "/>
<path style=" stroke:none;fill-rule:nonzero;fill:rgb(60.784314%,81.960784%,83.137255%);fill-opacity:1;" d="M 352.921875 297.652344 C 354.949219 293.589844 359.007812 290.542969 361.035156 288.515625 C 362.050781 287.5 363.0625 287.5 363.0625 286.484375 L 365.09375 286.484375 C 366.105469 286.484375 367.121094 287.5 367.121094 287.5 Z M 352.921875 297.652344 "/>
<path style=" stroke:none;fill-rule:nonzero;fill:rgb(61.568627%,83.921569%,86.666667%);fill-opacity:1;" d="M 356.980469 440.816406 C 356.980469 433.710938 356.980469 426.601562 356.980469 420.511719 C 357.992188 395.125 359.007812 370.757812 360.023438 345.375 L 376.25 350.449219 C 376.25 351.464844 376.25 352.480469 376.25 352.480469 L 360.023438 363.652344 L 375.234375 367.710938 C 375.234375 372.789062 374.21875 376.851562 374.21875 380.910156 C 372.191406 388.019531 371.175781 395.125 370.164062 402.234375 C 369.148438 411.371094 370.164062 421.527344 370.164062 431.679688 C 370.164062 433.710938 371.175781 434.726562 371.175781 436.757812 C 367.121094 437.773438 364.078125 438.785156 360.023438 439.800781 C 359.007812 439.800781 357.992188 440.816406 356.980469 440.816406 Z M 356.980469 440.816406 "/>
<path style=" stroke:none;fill-rule:nonzero;fill:rgb(60.784314%,82.745098%,84.313725%);fill-opacity:1;" d="M 372.191406 464.171875 C 371.175781 464.171875 370.164062 464.171875 370.164062 464.171875 C 369.148438 461.125 366.105469 458.078125 363.0625 458.078125 C 363.0625 458.078125 363.0625 458.078125 362.050781 458.078125 C 362.050781 458.078125 361.035156 458.078125 361.035156 458.078125 C 359.007812 453.003906 357.992188 446.910156 356.980469 440.816406 C 357.992188 440.816406 359.007812 439.800781 360.023438 439.800781 C 364.078125 438.785156 367.121094 437.773438 371.175781 436.757812 C 371.175781 445.894531 372.191406 455.03125 373.207031 464.171875 C 372.191406 464.171875 372.191406 464.171875 372.191406 464.171875 Z M 372.191406 464.171875 "/>
<path style=" stroke:none;fill-rule:nonzero;fill:rgb(61.568627%,83.921569%,86.666667%);fill-opacity:1;" d="M 375.234375 367.710938 L 360.023438 363.652344 L 376.25 352.480469 C 376.25 357.558594 376.25 362.636719 375.234375 367.710938 Z M 375.234375 367.710938 "/>
<path style=" stroke:none;fill-rule:nonzero;fill:rgb(61.568627%,83.921569%,86.666667%);fill-opacity:1;" d="M 376.25 350.449219 L 360.023438 345.375 C 360.023438 341.3125 360.023438 336.234375 360.023438 332.175781 C 361.035156 325.066406 352.921875 315.929688 349.878906 308.820312 C 357.992188 308.820312 366.105469 306.789062 373.207031 303.746094 C 374.21875 307.804688 374.21875 312.882812 375.234375 314.914062 C 375.234375 327.097656 376.25 339.28125 376.25 350.449219 Z M 376.25 350.449219 "/>
<path style=" stroke:none;fill-rule:nonzero;fill:rgb(60.784314%,82.745098%,84.313725%);fill-opacity:1;" d="M 349.878906 308.820312 C 349.878906 307.804688 348.867188 306.789062 348.867188 305.773438 C 347.851562 303.746094 349.878906 300.699219 352.921875 297.652344 L 367.121094 287.5 C 370.164062 290.542969 372.191406 296.636719 373.207031 303.746094 C 366.105469 306.789062 357.992188 308.820312 349.878906 308.820312 Z M 349.878906 308.820312 "/>
<path style=" stroke:none;fill-rule:nonzero;fill:rgb(61.960784%,84.313725%,92.156863%);fill-opacity:1;" d="M 363.0625 476.355469 C 364.078125 470.261719 364.078125 466.203125 361.035156 460.109375 C 361.035156 459.09375 361.035156 459.09375 361.035156 458.078125 C 361.035156 458.078125 362.050781 458.078125 362.050781 458.078125 C 363.0625 458.078125 363.0625 458.078125 363.0625 458.078125 C 366.105469 458.078125 369.148438 461.125 370.164062 464.171875 C 370.164062 464.171875 371.175781 464.171875 372.191406 464.171875 C 372.191406 464.171875 372.191406 464.171875 373.207031 464.171875 C 373.207031 468.230469 373.207031 471.277344 374.21875 474.324219 C 372.191406 474.324219 371.175781 474.324219 370.164062 474.324219 C 368.136719 474.324219 366.105469 474.324219 365.09375 474.324219 C 364.078125 475.339844 364.078125 475.339844 363.0625 476.355469 Z M 363.0625 476.355469 "/>
<path style=" stroke:none;fill-rule:nonzero;fill:rgb(99.607843%,99.607843%,99.607843%);fill-opacity:1;" d="M 354.949219 260.082031 C 353.9375 261.097656 351.910156 262.113281 350.894531 262.113281 C 349.878906 264.144531 349.878906 266.175781 350.894531 268.207031 C 348.867188 272.269531 346.839844 276.328125 344.808594 280.390625 C 342.78125 284.453125 340.753906 288.515625 340.753906 292.574219 C 340.753906 293.589844 341.765625 295.621094 340.753906 296.636719 C 339.738281 296.636719 339.738281 297.652344 338.726562 297.652344 C 336.695312 298.667969 334.667969 300.699219 334.667969 303.746094 C 334.667969 305.773438 335.683594 307.804688 337.710938 308.820312 C 338.726562 309.835938 340.753906 309.835938 341.765625 308.820312 C 345.824219 307.804688 348.867188 305.773438 350.894531 302.730469 C 352.921875 300.699219 354.949219 297.652344 357.992188 297.652344 C 357.992188 297.652344 359.007812 298.667969 360.023438 298.667969 C 362.050781 298.667969 363.0625 297.652344 364.078125 296.636719 C 370.164062 292.574219 377.261719 291.558594 384.359375 292.574219 C 385.375 292.574219 387.402344 293.589844 388.417969 293.589844 C 390.445312 292.574219 392.472656 291.558594 394.503906 290.542969 C 395.515625 290.542969 397.546875 290.542969 398.558594 289.527344 C 399.574219 289.527344 400.585938 287.5 399.574219 286.484375 C 399.574219 285.46875 397.546875 285.46875 396.53125 284.453125 C 393.488281 282.421875 394.503906 278.359375 396.53125 275.3125 C 397.546875 272.269531 400.585938 268.207031 398.558594 265.160156 C 397.546875 263.128906 394.503906 262.113281 391.460938 261.097656 C 388.417969 260.082031 386.390625 260.082031 383.347656 260.082031 C 382.332031 260.082031 381.320312 260.082031 380.304688 260.082031 C 379.289062 259.070312 379.289062 258.054688 378.277344 257.039062 C 374.21875 252.976562 369.148438 253.992188 364.078125 252.976562 C 360.023438 251.960938 352.921875 253.992188 354.949219 260.082031 Z M 354.949219 260.082031 "/>
<path style=" stroke:none;fill-rule:nonzero;fill:rgb(48.235294%,79.607843%,89.803922%);fill-opacity:1;" d="M 221.082031 328.113281 C 220.070312 332.175781 220.070312 336.234375 216.011719 338.265625 C 215 338.265625 213.984375 338.265625 211.957031 337.25 C 210.941406 337.25 209.929688 336.234375 208.914062 334.203125 C 208.914062 331.160156 209.929688 328.113281 210.941406 326.082031 C 212.96875 324.050781 217.027344 321.003906 220.070312 322.019531 C 225.140625 323.035156 222.097656 325.066406 221.082031 328.113281 Z M 221.082031 328.113281 "/>
<path style=" stroke:none;fill-rule:nonzero;fill:rgb(58.823529%,72.941176%,88.627451%);fill-opacity:1;" d="M 389.433594 134.179688 C 379.289062 134.179688 369.148438 132.148438 363.0625 126.054688 C 346.839844 110.828125 387.402344 94.582031 387.402344 94.582031 C 393.488281 92.550781 398.558594 91.535156 403.628906 91.535156 C 428.984375 91.535156 428.984375 116.917969 423.914062 124.027344 C 420.871094 129.101562 404.644531 134.179688 389.433594 134.179688 Z M 389.433594 134.179688 "/>
<path style=" stroke:none;fill-rule:nonzero;fill:rgb(58.823529%,72.941176%,88.627451%);fill-opacity:1;" d="M 613.558594 198.148438 C 591.246094 198.148438 569.949219 154.488281 556.765625 142.300781 C 546.625 134.179688 559.808594 125.042969 579.078125 125.042969 C 591.246094 125.042969 606.460938 128.085938 619.644531 138.242188 C 655.136719 163.625 622.6875 195.101562 622.6875 195.101562 C 619.644531 197.132812 616.601562 198.148438 613.558594 198.148438 Z M 613.558594 198.148438 "/>
<path style=" stroke:none;fill-rule:nonzero;fill:rgb(58.823529%,72.941176%,88.627451%);fill-opacity:1;" d="M 37.523438 203.222656 C 30.425781 203.222656 20.28125 190.023438 23.324219 180.886719 C 24.339844 173.777344 32.453125 168.703125 40.566406 168.703125 C 43.609375 168.703125 47.664062 169.71875 50.707031 171.746094 C 55.777344 174.792969 50.707031 180.886719 47.664062 186.976562 C 43.609375 194.085938 40.566406 201.191406 40.566406 201.191406 C 39.550781 202.207031 38.539062 203.222656 37.523438 203.222656 Z M 37.523438 203.222656 "/>
</g>
</svg>
